<mxfile host="www.draw.io" modified="2019-12-05T13:57:45.454Z" agent="Mozilla/5.0 (Macintosh; Intel Mac OS X 10.12; rv:70.0) Gecko/20100101 Firefox/70.0" etag="dguSs4tIfG7S1M5wKs9N" version="12.3.7" type="github" pages="1">
  <diagram id="6a731a19-8d31-9384-78a2-239565b7b9f0" name="Page-1">
    <mxGraphModel dx="3389" dy="-1257" grid="1" gridSize="10" guides="1" tooltips="1" connect="1" arrows="1" fold="1" page="1" pageScale="1" pageWidth="1169" pageHeight="827" background="#ffffff" math="0" shadow="0">
      <root>
        <mxCell id="0"/>
        <mxCell id="1" parent="0"/>
        <mxCell id="DnX8of81x7eRWFO5bJzf-1013" value="" style="group;aspect=fixed;" vertex="1" connectable="0" parent="1">
          <mxGeometry x="5.5" y="3610" width="1161" height="385.69" as="geometry"/>
        </mxCell>
        <mxCell id="DnX8of81x7eRWFO5bJzf-1004" value="" style="group" vertex="1" connectable="0" parent="DnX8of81x7eRWFO5bJzf-1013">
          <mxGeometry x="318" y="84" width="846" height="178" as="geometry"/>
        </mxCell>
        <mxCell id="943" value="" style="shape=image;verticalLabelPosition=bottom;labelBackgroundColor=#ffffff;verticalAlign=top;aspect=fixed;imageAspect=0;image=data:image/svg+xml,PHN2ZyB4bWxucz0iaHR0cDovL3d3dy53My5vcmcvMjAwMC9zdmciIHZpZXdCb3g9IjAgMCA2NTAgMjAwIj48ZGVmcz48c3R5bGU+LmNscy0xe2ZpbGw6I2NjYzt9LmNscy0ye2ZpbGw6I2RkZDt9LmNscy0ze2ZpbGw6I2ZmZjt9LmNscy00e2ZpbGw6I2FhYTt9LmNscy01e2ZpbGw6IzkwOTA5MDt9LmNscy02e2ZpbGw6I2YwODcwNTt9PC9zdHlsZT48L2RlZnM+PHRpdGxlPlplaWNoZW5mbMODwqRjaGUgMyBLb3BpZSAxNDwvdGl0bGU+PGcgaWQ9IkViZW5lXzIiIGRhdGEtbmFtZT0iRWJlbmUgMiI+PHBhdGggY2xhc3M9ImNscy0xIiBkPSJNMjQuMTQ1LDQ2LjY5MWE5LjI2Nyw5LjI2NywwLDEsMSw5LjI2My05LjI2Nyw5LjI3Nyw5LjI3NywwLDAsMS05LjI2Myw5LjI2NyIvPjxwYXRoIGNsYXNzPSJjbHMtMSIgZD0iTTM3LjA1NSw1MC40NTlhOS43MTcsOS43MTcsMCwwLDAtNi4wMDctMS45M0gxNy4yODhhOS44MTEsOS44MTEsMCwwLDAtNi4wMjQsMS45MTEsOS4yMzEsOS4yMzEsMCwwLDAtMy42MzQsNy4zNTR2OS4wNEgxMy41OFY1OS43NzlhMS40LDEuNCwwLDAsMSwxLjQtMS40aDBhMS40LDEuNCwwLDAsMSwxLjQsMS40djcuMDU2SDMxLjkxVjU5Ljc3OWExLjQsMS40LDAsMCwxLDEuNC0xLjRoMGExLjQsMS40LDAsMCwxLDEuNCwxLjR2Ny4wNTZoNS45NTJ2LTkuMDRBOS4yNDMsOS4yNDMsMCwwLDAsMzcuMDU1LDUwLjQ1OVoiLz48cGF0aCBjbGFzcz0iY2xzLTIiIGQ9Ik03NC4yODgsNDYuNjkxYTkuMjY3LDkuMjY3LDAsMSwxLDkuMjYzLTkuMjY3LDkuMjc3LDkuMjc3LDAsMCwxLTkuMjYzLDkuMjY3Ii8+PHBhdGggY2xhc3M9ImNscy0yIiBkPSJNODcuMiw1MC40NTlhOS43MTcsOS43MTcsMCwwLDAtNi4wMDctMS45M0g2Ny40MzFhOS44MTEsOS44MTEsMCwwLDAtNi4wMjQsMS45MTEsOS4yMzEsOS4yMzEsMCwwLDAtMy42MzQsNy4zNTR2OS4wNGg1Ljk0OVY1OS43NzlhMS40LDEuNCwwLDAsMSwxLjQtMS40aDBhMS40LDEuNCwwLDAsMSwxLjQsMS40djcuMDU2SDgyLjA1MlY1OS43NzlhMS40LDEuNCwwLDAsMSwxLjQtMS40aDBhMS40LDEuNCwwLDAsMSwxLjQsMS40djcuMDU2SDkwLjh2LTkuMDRBOS4yNDMsOS4yNDMsMCwwLDAsODcuMiw1MC40NTlaIi8+PHBhdGggY2xhc3M9ImNscy0yIiBkPSJNMTI0LjQzMSw0Ni42OTFhOS4yNjcsOS4yNjcsMCwxLDEsOS4yNjMtOS4yNjcsOS4yNzcsOS4yNzcsMCwwLDEtOS4yNjMsOS4yNjciLz48cGF0aCBjbGFzcz0iY2xzLTIiIGQ9Ik0xMzcuMzQsNTAuNDU5YTkuNzE3LDkuNzE3LDAsMCwwLTYuMDA3LTEuOTNoLTEzLjc2YTkuODExLDkuODExLDAsMCwwLTYuMDI0LDEuOTExLDkuMjMxLDkuMjMxLDAsMCwwLTMuNjM0LDcuMzU0djkuMDRoNS45NDlWNTkuNzc5YTEuNCwxLjQsMCwwLDEsMS40LTEuNGgwYTEuNCwxLjQsMCwwLDEsMS40LDEuNHY3LjA1NkgxMzIuMlY1OS43NzlhMS40LDEuNCwwLDAsMSwxLjQtMS40aDBhMS40LDEuNCwwLDAsMSwxLjQsMS40djcuMDU2aDUuOTUydi05LjA0QTkuMjQzLDkuMjQzLDAsMCwwLDEzNy4zNCw1MC40NTlaIi8+PHBhdGggY2xhc3M9ImNscy0yIiBkPSJNMTc0LjU3Myw0Ni42OTFhOS4yNjcsOS4yNjcsMCwxLDEsOS4yNjMtOS4yNjcsOS4yNzcsOS4yNzcsMCwwLDEtOS4yNjMsOS4yNjciLz48cGF0aCBjbGFzcz0iY2xzLTIiIGQ9Ik0xODcuNDgzLDUwLjQ1OWE5LjcxNyw5LjcxNywwLDAsMC02LjAwNy0xLjkzaC0xMy43NmE5LjgxMSw5LjgxMSwwLDAsMC02LjAyNCwxLjkxMSw5LjIzMSw5LjIzMSwwLDAsMC0zLjYzNCw3LjM1NHY5LjA0aDUuOTQ5VjU5Ljc3OWExLjQsMS40LDAsMCwxLDEuNC0xLjRoMGExLjQsMS40LDAsMCwxLDEuNCwxLjR2Ny4wNTZoMTUuNTM0VjU5Ljc3OWExLjQsMS40LDAsMCwxLDEuNC0xLjRoMGExLjQsMS40LDAsMCwxLDEuNCwxLjR2Ny4wNTZoNS45NTJ2LTkuMDRBOS4yNDMsOS4yNDMsMCwwLDAsMTg3LjQ4Myw1MC40NTlaIi8+PHBhdGggY2xhc3M9ImNscy0yIiBkPSJNMjI0LjcxNiw0Ni42OTFhOS4yNjcsOS4yNjcsMCwxLDEsOS4yNjMtOS4yNjcsOS4yNzcsOS4yNzcsMCwwLDEtOS4yNjMsOS4yNjciLz48cGF0aCBjbGFzcz0iY2xzLTIiIGQ9Ik0yMzcuNjI2LDUwLjQ1OWE5LjcxNyw5LjcxNywwLDAsMC02LjAwNy0xLjkzaC0xMy43NmE5LjgxMSw5LjgxMSwwLDAsMC02LjAyNCwxLjkxMSw5LjIzMSw5LjIzMSwwLDAsMC0zLjYzNCw3LjM1NHY5LjA0aDUuOTQ5VjU5Ljc3OWExLjQsMS40LDAsMCwxLDEuNC0xLjRoMGExLjQsMS40LDAsMCwxLDEuNCwxLjR2Ny4wNTZIMjMyLjQ4VjU5Ljc3OWExLjQsMS40LDAsMCwxLDEuNC0xLjRoMGExLjQsMS40LDAsMCwxLDEuNCwxLjR2Ny4wNTZoNS45NTJ2LTkuMDRBOS4yNDMsOS4yNDMsMCwwLDAsMjM3LjYyNiw1MC40NTlaIi8+PHBhdGggY2xhc3M9ImNscy0yIiBkPSJNMjc0Ljg1OCw0Ni42OTFhOS4yNjcsOS4yNjcsMCwxLDEsOS4yNjMtOS4yNjcsOS4yNzcsOS4yNzcsMCwwLDEtOS4yNjMsOS4yNjciLz48cGF0aCBjbGFzcz0iY2xzLTIiIGQ9Ik0yODcuNzY4LDUwLjQ1OWE5LjcxNyw5LjcxNywwLDAsMC02LjAwNy0xLjkzSDI2OGE5LjgxMSw5LjgxMSwwLDAsMC02LjAyNCwxLjkxMSw5LjIzMSw5LjIzMSwwLDAsMC0zLjYzNCw3LjM1NHY5LjA0aDUuOTQ5VjU5Ljc3OWExLjQsMS40LDAsMCwxLDEuNC0xLjRoMGExLjQsMS40LDAsMCwxLDEuNCwxLjR2Ny4wNTZoMTUuNTM0VjU5Ljc3OWExLjQsMS40LDAsMCwxLDEuNC0xLjRoMGExLjQsMS40LDAsMCwxLDEuNCwxLjR2Ny4wNTZoNS45NTJ2LTkuMDRBOS4yNDMsOS4yNDMsMCwwLDAsMjg3Ljc2OCw1MC40NTlaIi8+PHBhdGggY2xhc3M9ImNscy0yIiBkPSJNMzI1LDQ2LjY5MWE5LjI2Nyw5LjI2NywwLDEsMSw5LjI2My05LjI2N0E5LjI3Nyw5LjI3NywwLDAsMSwzMjUsNDYuNjkxIi8+PHBhdGggY2xhc3M9ImNscy0yIiBkPSJNMzM3LjkxMSw1MC40NTlhOS43MTcsOS43MTcsMCwwLDAtNi4wMDctMS45M2gtMTMuNzZhOS44MTEsOS44MTEsMCwwLDAtNi4wMjQsMS45MTEsOS4yMzEsOS4yMzEsMCwwLDAtMy42MzQsNy4zNTR2OS4wNGg1Ljk0OVY1OS43NzlhMS40LDEuNCwwLDAsMSwxLjQtMS40aDBhMS40LDEuNCwwLDAsMSwxLjQsMS40djcuMDU2aDE1LjUzNFY1OS43NzlhMS40LDEuNCwwLDAsMSwxLjQtMS40aDBhMS40LDEuNCwwLDAsMSwxLjQsMS40djcuMDU2aDUuOTUydi05LjA0QTkuMjQzLDkuMjQzLDAsMCwwLDMzNy45MTEsNTAuNDU5WiIvPjxwYXRoIGNsYXNzPSJjbHMtMiIgZD0iTTM3NS4xNDQsNDYuNjkxYTkuMjY3LDkuMjY3LDAsMSwxLDkuMjYzLTkuMjY3LDkuMjc3LDkuMjc3LDAsMCwxLTkuMjYzLDkuMjY3Ii8+PHBhdGggY2xhc3M9ImNscy0yIiBkPSJNMzg4LjA1NCw1MC40NTlhOS43MTcsOS43MTcsMCwwLDAtNi4wMDctMS45M2gtMTMuNzZhOS44MTEsOS44MTEsMCwwLDAtNi4wMjQsMS45MTEsOS4yMzEsOS4yMzEsMCwwLDAtMy42MzQsNy4zNTR2OS4wNGg1Ljk0OVY1OS43NzlhMS40LDEuNCwwLDAsMSwxLjQtMS40aDBhMS40LDEuNCwwLDAsMSwxLjQsMS40djcuMDU2aDE1LjUzNFY1OS43NzlhMS40LDEuNCwwLDAsMSwxLjQtMS40aDBhMS40LDEuNCwwLDAsMSwxLjQsMS40djcuMDU2aDUuOTUydi05LjA0QTkuMjQzLDkuMjQzLDAsMCwwLDM4OC4wNTQsNTAuNDU5WiIvPjxwYXRoIGNsYXNzPSJjbHMtMiIgZD0iTTI0LjE0NSw5OS4yYTkuMjY3LDkuMjY3LDAsMSwxLDkuMjYzLTkuMjY3QTkuMjc3LDkuMjc3LDAsMCwxLDI0LjE0NSw5OS4yIi8+PHBhdGggY2xhc3M9ImNscy0yIiBkPSJNMzcuMDU1LDEwMi45NjNhOS43MTcsOS43MTcsMCwwLDAtNi4wMDctMS45M0gxNy4yODhhOS44MTEsOS44MTEsMCwwLDAtNi4wMjQsMS45MTFBOS4yMzEsOS4yMzEsMCwwLDAsNy42MzEsMTEwLjN2OS4wNEgxMy41OHYtNy4wNTZhMS40LDEuNCwwLDAsMSwxLjQtMS40aDBhMS40LDEuNCwwLDAsMSwxLjQsMS40djcuMDU2SDMxLjkxdi03LjA1NmExLjQsMS40LDAsMCwxLDEuNC0xLjRoMGExLjQsMS40LDAsMCwxLDEuNCwxLjR2Ny4wNTZoNS45NTJWMTEwLjNBOS4yNDMsOS4yNDMsMCwwLDAsMzcuMDU1LDEwMi45NjNaIi8+PHBhdGggY2xhc3M9ImNscy0yIiBkPSJNNzQuMjg4LDk5LjJhOS4yNjcsOS4yNjcsMCwxLDEsOS4yNjMtOS4yNjdBOS4yNzcsOS4yNzcsMCwwLDEsNzQuMjg4LDk5LjIiLz48cGF0aCBjbGFzcz0iY2xzLTIiIGQ9Ik04Ny4yLDEwMi45NjNhOS43MTcsOS43MTcsMCwwLDAtNi4wMDctMS45M0g2Ny40MzFhOS44MTEsOS44MTEsMCwwLDAtNi4wMjQsMS45MTEsOS4yMzEsOS4yMzEsMCwwLDAtMy42MzQsNy4zNTR2OS4wNGg1Ljk0OXYtNy4wNTZhMS40LDEuNCwwLDAsMSwxLjQtMS40aDBhMS40LDEuNCwwLDAsMSwxLjQsMS40djcuMDU2SDgyLjA1MnYtNy4wNTZhMS40LDEuNCwwLDAsMSwxLjQtMS40aDBhMS40LDEuNCwwLDAsMSwxLjQsMS40djcuMDU2SDkwLjhWMTEwLjNBOS4yNDMsOS4yNDMsMCwwLDAsODcuMiwxMDIuOTYzWiIvPjxwYXRoIGNsYXNzPSJjbHMtMiIgZD0iTTEyNC40MzEsOTkuMmE5LjI2Nyw5LjI2NywwLDEsMSw5LjI2My05LjI2Nyw5LjI3Nyw5LjI3NywwLDAsMS05LjI2Myw5LjI2NyIvPjxwYXRoIGNsYXNzPSJjbHMtMiIgZD0iTTEzNy4zNCwxMDIuOTYzYTkuNzE3LDkuNzE3LDAsMCwwLTYuMDA3LTEuOTNoLTEzLjc2YTkuODExLDkuODExLDAsMCwwLTYuMDI0LDEuOTExLDkuMjMxLDkuMjMxLDAsMCwwLTMuNjM0LDcuMzU0djkuMDRoNS45NDl2LTcuMDU2YTEuNCwxLjQsMCwwLDEsMS40LTEuNGgwYTEuNCwxLjQsMCwwLDEsMS40LDEuNHY3LjA1NkgxMzIuMnYtNy4wNTZhMS40LDEuNCwwLDAsMSwxLjQtMS40aDBhMS40LDEuNCwwLDAsMSwxLjQsMS40djcuMDU2aDUuOTUyVjExMC4zQTkuMjQzLDkuMjQzLDAsMCwwLDEzNy4zNCwxMDIuOTYzWiIvPjxwYXRoIGNsYXNzPSJjbHMtMSIgZD0iTTE3NC41NzMsOTkuMmE5LjI2Nyw5LjI2NywwLDEsMSw5LjI2My05LjI2Nyw5LjI3Nyw5LjI3NywwLDAsMS05LjI2Myw5LjI2NyIvPjxwYXRoIGNsYXNzPSJjbHMtMSIgZD0iTTE4Ny40ODMsMTAyLjk2M2E5LjcxNyw5LjcxNywwLDAsMC02LjAwNy0xLjkzaC0xMy43NmE5LjgxMSw5LjgxMSwwLDAsMC02LjAyNCwxLjkxMSw5LjIzMSw5LjIzMSwwLDAsMC0zLjYzNCw3LjM1NHY5LjA0aDUuOTQ5di03LjA1NmExLjQsMS40LDAsMCwxLDEuNC0xLjRoMGExLjQsMS40LDAsMCwxLDEuNCwxLjR2Ny4wNTZoMTUuNTM0di03LjA1NmExLjQsMS40LDAsMCwxLDEuNC0xLjRoMGExLjQsMS40LDAsMCwxLDEuNCwxLjR2Ny4wNTZoNS45NTJWMTEwLjNBOS4yNDMsOS4yNDMsMCwwLDAsMTg3LjQ4MywxMDIuOTYzWiIvPjxwYXRoIGNsYXNzPSJjbHMtMiIgZD0iTTIyNC43MTYsOTkuMmE5LjI2Nyw5LjI2NywwLDEsMSw5LjI2My05LjI2Nyw5LjI3Nyw5LjI3NywwLDAsMS05LjI2Myw5LjI2NyIvPjxwYXRoIGNsYXNzPSJjbHMtMiIgZD0iTTIzNy42MjYsMTAyLjk2M2E5LjcxNyw5LjcxNywwLDAsMC02LjAwNy0xLjkzaC0xMy43NmE5LjgxMSw5LjgxMSwwLDAsMC02LjAyNCwxLjkxMUE5LjIzMSw5LjIzMSwwLDAsMCwyMDguMiwxMTAuM3Y5LjA0aDUuOTQ5di03LjA1NmExLjQsMS40LDAsMCwxLDEuNC0xLjRoMGExLjQsMS40LDAsMCwxLDEuNCwxLjR2Ny4wNTZIMjMyLjQ4di03LjA1NmExLjQsMS40LDAsMCwxLDEuNC0xLjRoMGExLjQsMS40LDAsMCwxLDEuNCwxLjR2Ny4wNTZoNS45NTJWMTEwLjNBOS4yNDMsOS4yNDMsMCwwLDAsMjM3LjYyNiwxMDIuOTYzWiIvPjxwYXRoIGNsYXNzPSJjbHMtMiIgZD0iTTI3NC44NTgsOTkuMmE5LjI2Nyw5LjI2NywwLDEsMSw5LjI2My05LjI2Nyw5LjI3Nyw5LjI3NywwLDAsMS05LjI2Myw5LjI2NyIvPjxwYXRoIGNsYXNzPSJjbHMtMiIgZD0iTTI4Ny43NjgsMTAyLjk2M2E5LjcxNyw5LjcxNywwLDAsMC02LjAwNy0xLjkzSDI2OGE5LjgxMSw5LjgxMSwwLDAsMC02LjAyNCwxLjkxMSw5LjIzMSw5LjIzMSwwLDAsMC0zLjYzNCw3LjM1NHY5LjA0aDUuOTQ5di03LjA1NmExLjQsMS40LDAsMCwxLDEuNC0xLjRoMGExLjQsMS40LDAsMCwxLDEuNCwxLjR2Ny4wNTZoMTUuNTM0di03LjA1NmExLjQsMS40LDAsMCwxLDEuNC0xLjRoMGExLjQsMS40LDAsMCwxLDEuNCwxLjR2Ny4wNTZoNS45NTJWMTEwLjNBOS4yNDMsOS4yNDMsMCwwLDAsMjg3Ljc2OCwxMDIuOTYzWiIvPjxwYXRoIGNsYXNzPSJjbHMtMiIgZD0iTTMyNSw5OS4yYTkuMjY3LDkuMjY3LDAsMSwxLDkuMjYzLTkuMjY3QTkuMjc3LDkuMjc3LDAsMCwxLDMyNSw5OS4yIi8+PHBhdGggY2xhc3M9ImNscy0yIiBkPSJNMzM3LjkxMSwxMDIuOTYzYTkuNzE3LDkuNzE3LDAsMCwwLTYuMDA3LTEuOTNoLTEzLjc2YTkuODExLDkuODExLDAsMCwwLTYuMDI0LDEuOTExLDkuMjMxLDkuMjMxLDAsMCwwLTMuNjM0LDcuMzU0djkuMDRoNS45NDl2LTcuMDU2YTEuNCwxLjQsMCwwLDEsMS40LTEuNGgwYTEuNCwxLjQsMCwwLDEsMS40LDEuNHY3LjA1NmgxNS41MzR2LTcuMDU2YTEuNCwxLjQsMCwwLDEsMS40LTEuNGgwYTEuNCwxLjQsMCwwLDEsMS40LDEuNHY3LjA1Nmg1Ljk1MlYxMTAuM0E5LjI0Myw5LjI0MywwLDAsMCwzMzcuOTExLDEwMi45NjNaIi8+PHBhdGggY2xhc3M9ImNscy0yIiBkPSJNMzc1LjE0NCw5OS4yYTkuMjY3LDkuMjY3LDAsMSwxLDkuMjYzLTkuMjY3LDkuMjc3LDkuMjc3LDAsMCwxLTkuMjYzLDkuMjY3Ii8+PHBhdGggY2xhc3M9ImNscy0yIiBkPSJNMzg4LjA1NCwxMDIuOTYzYTkuNzE3LDkuNzE3LDAsMCwwLTYuMDA3LTEuOTNoLTEzLjc2YTkuODExLDkuODExLDAsMCwwLTYuMDI0LDEuOTExLDkuMjMxLDkuMjMxLDAsMCwwLTMuNjM0LDcuMzU0djkuMDRoNS45NDl2LTcuMDU2YTEuNCwxLjQsMCwwLDEsMS40LTEuNGgwYTEuNCwxLjQsMCwwLDEsMS40LDEuNHY3LjA1NmgxNS41MzR2LTcuMDU2YTEuNCwxLjQsMCwwLDEsMS40LTEuNGgwYTEuNCwxLjQsMCwwLDEsMS40LDEuNHY3LjA1Nmg1Ljk1MlYxMTAuM0E5LjI0Myw5LjI0MywwLDAsMCwzODguMDU0LDEwMi45NjNaIi8+PHBhdGggY2xhc3M9ImNscy0xIiBkPSJNMjQuMTQ1LDE1MS43YTkuMjY3LDkuMjY3LDAsMSwxLDkuMjYzLTkuMjY3LDkuMjc3LDkuMjc3LDAsMCwxLTkuMjYzLDkuMjY3Ii8+PHBhdGggY2xhc3M9ImNscy0xIiBkPSJNMzcuMDU1LDE1NS40NjdhOS43MTcsOS43MTcsMCwwLDAtNi4wMDctMS45M0gxNy4yODhhOS44MTEsOS44MTEsMCwwLDAtNi4wMjQsMS45MTFBOS4yMzEsOS4yMzEsMCwwLDAsNy42MzEsMTYyLjh2OS4wNEgxMy41OHYtNy4wNTZhMS40LDEuNCwwLDAsMSwxLjQtMS40aDBhMS40LDEuNCwwLDAsMSwxLjQsMS40djcuMDU2SDMxLjkxdi03LjA1NmExLjQsMS40LDAsMCwxLDEuNC0xLjRoMGExLjQsMS40LDAsMCwxLDEuNCwxLjR2Ny4wNTZoNS45NTJWMTYyLjhBOS4yNDMsOS4yNDMsMCwwLDAsMzcuMDU1LDE1NS40NjdaIi8+PHBhdGggY2xhc3M9ImNscy0yIiBkPSJNNzQuMjg4LDE1MS43YTkuMjY3LDkuMjY3LDAsMSwxLDkuMjYzLTkuMjY3LDkuMjc3LDkuMjc3LDAsMCwxLTkuMjYzLDkuMjY3Ii8+PHBhdGggY2xhc3M9ImNscy0yIiBkPSJNODcuMiwxNTUuNDY3YTkuNzE3LDkuNzE3LDAsMCwwLTYuMDA3LTEuOTNINjcuNDMxYTkuODExLDkuODExLDAsMCwwLTYuMDI0LDEuOTExLDkuMjMxLDkuMjMxLDAsMCwwLTMuNjM0LDcuMzU0djkuMDRoNS45NDl2LTcuMDU2YTEuNCwxLjQsMCwwLDEsMS40LTEuNGgwYTEuNCwxLjQsMCwwLDEsMS40LDEuNHY3LjA1Nkg4Mi4wNTJ2LTcuMDU2YTEuNCwxLjQsMCwwLDEsMS40LTEuNGgwYTEuNCwxLjQsMCwwLDEsMS40LDEuNHY3LjA1Nkg5MC44VjE2Mi44QTkuMjQzLDkuMjQzLDAsMCwwLDg3LjIsMTU1LjQ2N1oiLz48cGF0aCBjbGFzcz0iY2xzLTIiIGQ9Ik0xMjQuNDMxLDE1MS43YTkuMjY3LDkuMjY3LDAsMSwxLDkuMjYzLTkuMjY3LDkuMjc3LDkuMjc3LDAsMCwxLTkuMjYzLDkuMjY3Ii8+PHBhdGggY2xhc3M9ImNscy0yIiBkPSJNMTM3LjM0LDE1NS40NjdhOS43MTcsOS43MTcsMCwwLDAtNi4wMDctMS45M2gtMTMuNzZhOS44MTEsOS44MTEsMCwwLDAtNi4wMjQsMS45MTEsOS4yMzEsOS4yMzEsMCwwLDAtMy42MzQsNy4zNTR2OS4wNGg1Ljk0OXYtNy4wNTZhMS40LDEuNCwwLDAsMSwxLjQtMS40aDBhMS40LDEuNCwwLDAsMSwxLjQsMS40djcuMDU2SDEzMi4ydi03LjA1NmExLjQsMS40LDAsMCwxLDEuNC0xLjRoMGExLjQsMS40LDAsMCwxLDEuNCwxLjR2Ny4wNTZoNS45NTJWMTYyLjhBOS4yNDMsOS4yNDMsMCwwLDAsMTM3LjM0LDE1NS40NjdaIi8+PHBhdGggY2xhc3M9ImNscy0yIiBkPSJNMTc0LjU3MywxNTEuN2E5LjI2Nyw5LjI2NywwLDEsMSw5LjI2My05LjI2Nyw5LjI3Nyw5LjI3NywwLDAsMS05LjI2Myw5LjI2NyIvPjxwYXRoIGNsYXNzPSJjbHMtMiIgZD0iTTE4Ny40ODMsMTU1LjQ2N2E5LjcxNyw5LjcxNywwLDAsMC02LjAwNy0xLjkzaC0xMy43NmE5LjgxMSw5LjgxMSwwLDAsMC02LjAyNCwxLjkxMSw5LjIzMSw5LjIzMSwwLDAsMC0zLjYzNCw3LjM1NHY5LjA0aDUuOTQ5di03LjA1NmExLjQsMS40LDAsMCwxLDEuNC0xLjRoMGExLjQsMS40LDAsMCwxLDEuNCwxLjR2Ny4wNTZoMTUuNTM0di03LjA1NmExLjQsMS40LDAsMCwxLDEuNC0xLjRoMGExLjQsMS40LDAsMCwxLDEuNCwxLjR2Ny4wNTZoNS45NTJWMTYyLjhBOS4yNDMsOS4yNDMsMCwwLDAsMTg3LjQ4MywxNTUuNDY3WiIvPjxwYXRoIGNsYXNzPSJjbHMtMiIgZD0iTTIyNC43MTYsMTUxLjdhOS4yNjcsOS4yNjcsMCwxLDEsOS4yNjMtOS4yNjcsOS4yNzcsOS4yNzcsMCwwLDEtOS4yNjMsOS4yNjciLz48cGF0aCBjbGFzcz0iY2xzLTIiIGQ9Ik0yMzcuNjI2LDE1NS40NjdhOS43MTcsOS43MTcsMCwwLDAtNi4wMDctMS45M2gtMTMuNzZhOS44MTEsOS44MTEsMCwwLDAtNi4wMjQsMS45MTFBOS4yMzEsOS4yMzEsMCwwLDAsMjA4LjIsMTYyLjh2OS4wNGg1Ljk0OXYtNy4wNTZhMS40LDEuNCwwLDAsMSwxLjQtMS40aDBhMS40LDEuNCwwLDAsMSwxLjQsMS40djcuMDU2SDIzMi40OHYtNy4wNTZhMS40LDEuNCwwLDAsMSwxLjQtMS40aDBhMS40LDEuNCwwLDAsMSwxLjQsMS40djcuMDU2aDUuOTUyVjE2Mi44QTkuMjQzLDkuMjQzLDAsMCwwLDIzNy42MjYsMTU1LjQ2N1oiLz48cGF0aCBjbGFzcz0iY2xzLTIiIGQ9Ik0yNzQuODU4LDE1MS43YTkuMjY3LDkuMjY3LDAsMSwxLDkuMjYzLTkuMjY3LDkuMjc3LDkuMjc3LDAsMCwxLTkuMjYzLDkuMjY3Ii8+PHBhdGggY2xhc3M9ImNscy0yIiBkPSJNMjg3Ljc2OCwxNTUuNDY3YTkuNzE3LDkuNzE3LDAsMCwwLTYuMDA3LTEuOTNIMjY4YTkuODExLDkuODExLDAsMCwwLTYuMDI0LDEuOTExLDkuMjMxLDkuMjMxLDAsMCwwLTMuNjM0LDcuMzU0djkuMDRoNS45NDl2LTcuMDU2YTEuNCwxLjQsMCwwLDEsMS40LTEuNGgwYTEuNCwxLjQsMCwwLDEsMS40LDEuNHY3LjA1NmgxNS41MzR2LTcuMDU2YTEuNCwxLjQsMCwwLDEsMS40LTEuNGgwYTEuNCwxLjQsMCwwLDEsMS40LDEuNHY3LjA1Nmg1Ljk1MlYxNjIuOEE5LjI0Myw5LjI0MywwLDAsMCwyODcuNzY4LDE1NS40NjdaIi8+PHBhdGggY2xhc3M9ImNscy0yIiBkPSJNMzI1LDE1MS43YTkuMjY3LDkuMjY3LDAsMSwxLDkuMjYzLTkuMjY3QTkuMjc3LDkuMjc3LDAsMCwxLDMyNSwxNTEuNyIvPjxwYXRoIGNsYXNzPSJjbHMtMiIgZD0iTTMzNy45MTEsMTU1LjQ2N2E5LjcxNyw5LjcxNywwLDAsMC02LjAwNy0xLjkzaC0xMy43NmE5LjgxMSw5LjgxMSwwLDAsMC02LjAyNCwxLjkxMSw5LjIzMSw5LjIzMSwwLDAsMC0zLjYzNCw3LjM1NHY5LjA0aDUuOTQ5di03LjA1NmExLjQsMS40LDAsMCwxLDEuNC0xLjRoMGExLjQsMS40LDAsMCwxLDEuNCwxLjR2Ny4wNTZoMTUuNTM0di03LjA1NmExLjQsMS40LDAsMCwxLDEuNC0xLjRoMGExLjQsMS40LDAsMCwxLDEuNCwxLjR2Ny4wNTZoNS45NTJWMTYyLjhBOS4yNDMsOS4yNDMsMCwwLDAsMzM3LjkxMSwxNTUuNDY3WiIvPjxwYXRoIGNsYXNzPSJjbHMtMiIgZD0iTTM3NS4xNDQsMTUxLjdhOS4yNjcsOS4yNjcsMCwxLDEsOS4yNjMtOS4yNjcsOS4yNzcsOS4yNzcsMCwwLDEtOS4yNjMsOS4yNjciLz48cGF0aCBjbGFzcz0iY2xzLTIiIGQ9Ik0zODguMDU0LDE1NS40NjdhOS43MTcsOS43MTcsMCwwLDAtNi4wMDctMS45M2gtMTMuNzZhOS44MTEsOS44MTEsMCwwLDAtNi4wMjQsMS45MTEsOS4yMzEsOS4yMzEsMCwwLDAtMy42MzQsNy4zNTR2OS4wNGg1Ljk0OXYtNy4wNTZhMS40LDEuNCwwLDAsMSwxLjQtMS40aDBhMS40LDEuNCwwLDAsMSwxLjQsMS40djcuMDU2aDE1LjUzNHYtNy4wNTZhMS40LDEuNCwwLDAsMSwxLjQtMS40aDBhMS40LDEuNCwwLDAsMSwxLjQsMS40djcuMDU2aDUuOTUyVjE2Mi44QTkuMjQzLDkuMjQzLDAsMCwwLDM4OC4wNTQsMTU1LjQ2N1oiLz48cGF0aCBjbGFzcz0iY2xzLTIiIGQ9Ik00MjUuMjg2LDQ2LjY5MWE5LjI2Nyw5LjI2NywwLDEsMSw5LjI2My05LjI2Nyw5LjI3Nyw5LjI3NywwLDAsMS05LjI2Myw5LjI2NyIvPjxwYXRoIGNsYXNzPSJjbHMtMiIgZD0iTTQzOC4yLDUwLjQ1OWE5LjcxNyw5LjcxNywwLDAsMC02LjAwNy0xLjkzaC0xMy43NmE5LjgxMSw5LjgxMSwwLDAsMC02LjAyNCwxLjkxMSw5LjIzMSw5LjIzMSwwLDAsMC0zLjYzNCw3LjM1NHY5LjA0aDUuOTQ5VjU5Ljc3OWExLjQsMS40LDAsMCwxLDEuNC0xLjRoMGExLjQsMS40LDAsMCwxLDEuNCwxLjR2Ny4wNTZoMTUuNTM0VjU5Ljc3OWExLjQsMS40LDAsMCwxLDEuNC0xLjRoMGExLjQsMS40LDAsMCwxLDEuNCwxLjR2Ny4wNTZINDQxLjh2LTkuMDRBOS4yNDMsOS4yNDMsMCwwLDAsNDM4LjIsNTAuNDU5WiIvPjxwYXRoIGNsYXNzPSJjbHMtMiIgZD0iTTQ3NS40MjksNDYuNjkxYTkuMjY3LDkuMjY3LDAsMSwxLDkuMjYzLTkuMjY3LDkuMjc3LDkuMjc3LDAsMCwxLTkuMjYzLDkuMjY3Ii8+PHBhdGggY2xhc3M9ImNscy0yIiBkPSJNNDg4LjMzOSw1MC40NTlhOS43MTcsOS43MTcsMCwwLDAtNi4wMDctMS45M2gtMTMuNzZhOS44MTEsOS44MTEsMCwwLDAtNi4wMjQsMS45MTEsOS4yMzEsOS4yMzEsMCwwLDAtMy42MzQsNy4zNTR2OS4wNGg1Ljk0OVY1OS43NzlhMS40LDEuNCwwLDAsMSwxLjQtMS40aDBhMS40LDEuNCwwLDAsMSwxLjQsMS40djcuMDU2aDE1LjUzNFY1OS43NzlhMS40LDEuNCwwLDAsMSwxLjQtMS40aDBhMS40LDEuNCwwLDAsMSwxLjQsMS40djcuMDU2aDUuOTUydi05LjA0QTkuMjQzLDkuMjQzLDAsMCwwLDQ4OC4zMzksNTAuNDU5WiIvPjxwYXRoIGNsYXNzPSJjbHMtMiIgZD0iTTUyNS41NzIsNDYuNjkxYTkuMjY3LDkuMjY3LDAsMSwxLDkuMjYzLTkuMjY3LDkuMjc3LDkuMjc3LDAsMCwxLTkuMjYzLDkuMjY3Ii8+PHBhdGggY2xhc3M9ImNscy0yIiBkPSJNNTM4LjQ4Miw1MC40NTlhOS43MTcsOS43MTcsMCwwLDAtNi4wMDctMS45M2gtMTMuNzZhOS44MTEsOS44MTEsMCwwLDAtNi4wMjQsMS45MTEsOS4yMzEsOS4yMzEsMCwwLDAtMy42MzQsNy4zNTR2OS4wNGg1Ljk0OVY1OS43NzlhMS40LDEuNCwwLDAsMSwxLjQtMS40aDBhMS40LDEuNCwwLDAsMSwxLjQsMS40djcuMDU2aDE1LjUzNFY1OS43NzlhMS40LDEuNCwwLDAsMSwxLjQtMS40aDBhMS40LDEuNCwwLDAsMSwxLjQsMS40djcuMDU2aDUuOTUydi05LjA0QTkuMjQzLDkuMjQzLDAsMCwwLDUzOC40ODIsNTAuNDU5WiIvPjxwYXRoIGNsYXNzPSJjbHMtMiIgZD0iTTQyNS4yODYsOTkuMmE5LjI2Nyw5LjI2NywwLDEsMSw5LjI2My05LjI2Nyw5LjI3Nyw5LjI3NywwLDAsMS05LjI2Myw5LjI2NyIvPjxwYXRoIGNsYXNzPSJjbHMtMiIgZD0iTTQzOC4yLDEwMi45NjNhOS43MTcsOS43MTcsMCwwLDAtNi4wMDctMS45M2gtMTMuNzZhOS44MTEsOS44MTEsMCwwLDAtNi4wMjQsMS45MTEsOS4yMzEsOS4yMzEsMCwwLDAtMy42MzQsNy4zNTR2OS4wNGg1Ljk0OXYtNy4wNTZhMS40LDEuNCwwLDAsMSwxLjQtMS40aDBhMS40LDEuNCwwLDAsMSwxLjQsMS40djcuMDU2aDE1LjUzNHYtNy4wNTZhMS40LDEuNCwwLDAsMSwxLjQtMS40aDBhMS40LDEuNCwwLDAsMSwxLjQsMS40djcuMDU2SDQ0MS44VjExMC4zQTkuMjQzLDkuMjQzLDAsMCwwLDQzOC4yLDEwMi45NjNaIi8+PHBhdGggY2xhc3M9ImNscy0xIiBkPSJNNDc1LjQyOSw5OS4yYTkuMjY3LDkuMjY3LDAsMSwxLDkuMjYzLTkuMjY3LDkuMjc3LDkuMjc3LDAsMCwxLTkuMjYzLDkuMjY3Ii8+PHBhdGggY2xhc3M9ImNscy0xIiBkPSJNNDg4LjMzOSwxMDIuOTYzYTkuNzE3LDkuNzE3LDAsMCwwLTYuMDA3LTEuOTNoLTEzLjc2YTkuODExLDkuODExLDAsMCwwLTYuMDI0LDEuOTExLDkuMjMxLDkuMjMxLDAsMCwwLTMuNjM0LDcuMzU0djkuMDRoNS45NDl2LTcuMDU2YTEuNCwxLjQsMCwwLDEsMS40LTEuNGgwYTEuNCwxLjQsMCwwLDEsMS40LDEuNHY3LjA1NmgxNS41MzR2LTcuMDU2YTEuNCwxLjQsMCwwLDEsMS40LTEuNGgwYTEuNCwxLjQsMCwwLDEsMS40LDEuNHY3LjA1Nmg1Ljk1MlYxMTAuM0E5LjI0Myw5LjI0MywwLDAsMCw0ODguMzM5LDEwMi45NjNaIi8+PHBhdGggY2xhc3M9ImNscy0yIiBkPSJNNTI1LjU3Miw5OS4yYTkuMjY3LDkuMjY3LDAsMSwxLDkuMjYzLTkuMjY3LDkuMjc3LDkuMjc3LDAsMCwxLTkuMjYzLDkuMjY3Ii8+PHBhdGggY2xhc3M9ImNscy0yIiBkPSJNNTM4LjQ4MiwxMDIuOTYzYTkuNzE3LDkuNzE3LDAsMCwwLTYuMDA3LTEuOTNoLTEzLjc2YTkuODExLDkuODExLDAsMCwwLTYuMDI0LDEuOTExLDkuMjMxLDkuMjMxLDAsMCwwLTMuNjM0LDcuMzU0djkuMDRoNS45NDl2LTcuMDU2YTEuNCwxLjQsMCwwLDEsMS40LTEuNGgwYTEuNCwxLjQsMCwwLDEsMS40LDEuNHY3LjA1NmgxNS41MzR2LTcuMDU2YTEuNCwxLjQsMCwwLDEsMS40LTEuNGgwYTEuNCwxLjQsMCwwLDEsMS40LDEuNHY3LjA1Nmg1Ljk1MlYxMTAuM0E5LjI0Myw5LjI0MywwLDAsMCw1MzguNDgyLDEwMi45NjNaIi8+PHBhdGggY2xhc3M9ImNscy0yIiBkPSJNNDI1LjI4NiwxNTEuN2E5LjI2Nyw5LjI2NywwLDEsMSw5LjI2My05LjI2Nyw5LjI3Nyw5LjI3NywwLDAsMS05LjI2Myw5LjI2NyIvPjxwYXRoIGNsYXNzPSJjbHMtMiIgZD0iTTQzOC4yLDE1NS40NjdhOS43MTcsOS43MTcsMCwwLDAtNi4wMDctMS45M2gtMTMuNzZhOS44MTEsOS44MTEsMCwwLDAtNi4wMjQsMS45MTEsOS4yMzEsOS4yMzEsMCwwLDAtMy42MzQsNy4zNTR2OS4wNGg1Ljk0OXYtNy4wNTZhMS40LDEuNCwwLDAsMSwxLjQtMS40aDBhMS40LDEuNCwwLDAsMSwxLjQsMS40djcuMDU2aDE1LjUzNHYtNy4wNTZhMS40LDEuNCwwLDAsMSwxLjQtMS40aDBhMS40LDEuNCwwLDAsMSwxLjQsMS40djcuMDU2SDQ0MS44VjE2Mi44QTkuMjQzLDkuMjQzLDAsMCwwLDQzOC4yLDE1NS40NjdaIi8+PHBhdGggY2xhc3M9ImNscy0yIiBkPSJNNDc1LjQyOSwxNTEuN2E5LjI2Nyw5LjI2NywwLDEsMSw5LjI2My05LjI2Nyw5LjI3Nyw5LjI3NywwLDAsMS05LjI2Myw5LjI2NyIvPjxwYXRoIGNsYXNzPSJjbHMtMiIgZD0iTTQ4OC4zMzksMTU1LjQ2N2E5LjcxNyw5LjcxNywwLDAsMC02LjAwNy0xLjkzaC0xMy43NmE5LjgxMSw5LjgxMSwwLDAsMC02LjAyNCwxLjkxMSw5LjIzMSw5LjIzMSwwLDAsMC0zLjYzNCw3LjM1NHY5LjA0aDUuOTQ5di03LjA1NmExLjQsMS40LDAsMCwxLDEuNC0xLjRoMGExLjQsMS40LDAsMCwxLDEuNCwxLjR2Ny4wNTZoMTUuNTM0di03LjA1NmExLjQsMS40LDAsMCwxLDEuNC0xLjRoMGExLjQsMS40LDAsMCwxLDEuNCwxLjR2Ny4wNTZoNS45NTJWMTYyLjhBOS4yNDMsOS4yNDMsMCwwLDAsNDg4LjMzOSwxNTUuNDY3WiIvPjxwYXRoIGNsYXNzPSJjbHMtMSIgZD0iTTUyNS41NzIsMTUxLjdhOS4yNjcsOS4yNjcsMCwxLDEsOS4yNjMtOS4yNjcsOS4yNzcsOS4yNzcsMCwwLDEtOS4yNjMsOS4yNjciLz48cGF0aCBjbGFzcz0iY2xzLTEiIGQ9Ik01MzguNDgyLDE1NS40NjdhOS43MTcsOS43MTcsMCwwLDAtNi4wMDctMS45M2gtMTMuNzZhOS44MTEsOS44MTEsMCwwLDAtNi4wMjQsMS45MTEsOS4yMzEsOS4yMzEsMCwwLDAtMy42MzQsNy4zNTR2OS4wNGg1Ljk0OXYtNy4wNTZhMS40LDEuNCwwLDAsMSwxLjQtMS40aDBhMS40LDEuNCwwLDAsMSwxLjQsMS40djcuMDU2aDE1LjUzNHYtNy4wNTZhMS40LDEuNCwwLDAsMSwxLjQtMS40aDBhMS40LDEuNCwwLDAsMSwxLjQsMS40djcuMDU2aDUuOTUyVjE2Mi44QTkuMjQzLDkuMjQzLDAsMCwwLDUzOC40ODIsMTU1LjQ2N1oiLz48cGF0aCBjbGFzcz0iY2xzLTIiIGQ9Ik01NzUuNzE0LDQ2LjY5MWE5LjI2Nyw5LjI2NywwLDEsMSw5LjI2My05LjI2Nyw5LjI3Nyw5LjI3NywwLDAsMS05LjI2Myw5LjI2NyIvPjxwYXRoIGNsYXNzPSJjbHMtMiIgZD0iTTU4OC42MjQsNTAuNDU5YTkuNzE3LDkuNzE3LDAsMCwwLTYuMDA3LTEuOTNoLTEzLjc2YTkuODExLDkuODExLDAsMCwwLTYuMDI0LDEuOTExLDkuMjMxLDkuMjMxLDAsMCwwLTMuNjM0LDcuMzU0djkuMDRoNS45NDlWNTkuNzc5YTEuNCwxLjQsMCwwLDEsMS40LTEuNGgwYTEuNCwxLjQsMCwwLDEsMS40LDEuNHY3LjA1NmgxNS41MzRWNTkuNzc5YTEuNCwxLjQsMCwwLDEsMS40LTEuNGgwYTEuNCwxLjQsMCwwLDEsMS40LDEuNHY3LjA1Nmg1Ljk1MnYtOS4wNEE5LjI0Myw5LjI0MywwLDAsMCw1ODguNjI0LDUwLjQ1OVoiLz48cGF0aCBjbGFzcz0iY2xzLTEiIGQ9Ik02MjUuODU3LDQ2LjY5MWE5LjI2Nyw5LjI2NywwLDEsMSw5LjI2My05LjI2Nyw5LjI3Nyw5LjI3NywwLDAsMS05LjI2Myw5LjI2NyIvPjxwYXRoIGNsYXNzPSJjbHMtMSIgZD0iTTYzOC43NjcsNTAuNDU5YTkuNzE3LDkuNzE3LDAsMCwwLTYuMDA3LTEuOTNINjE5YTkuODExLDkuODExLDAsMCwwLTYuMDI0LDEuOTExLDkuMjMxLDkuMjMxLDAsMCwwLTMuNjM0LDcuMzU0djkuMDRoNS45NDlWNTkuNzc5YTEuNCwxLjQsMCwwLDEsMS40LTEuNGgwYTEuNCwxLjQsMCwwLDEsMS40LDEuNHY3LjA1NmgxNS41MzRWNTkuNzc5YTEuNCwxLjQsMCwwLDEsMS40LTEuNGgwYTEuNCwxLjQsMCwwLDEsMS40LDEuNHY3LjA1Nmg1Ljk1MnYtOS4wNEE5LjI0Myw5LjI0MywwLDAsMCw2MzguNzY3LDUwLjQ1OVoiLz48cGF0aCBjbGFzcz0iY2xzLTIiIGQ9Ik01NzUuNzE0LDk5LjJhOS4yNjcsOS4yNjcsMCwxLDEsOS4yNjMtOS4yNjcsOS4yNzcsOS4yNzcsMCwwLDEtOS4yNjMsOS4yNjciLz48cGF0aCBjbGFzcz0iY2xzLTIiIGQ9Ik01ODguNjI0LDEwMi45NjNhOS43MTcsOS43MTcsMCwwLDAtNi4wMDctMS45M2gtMTMuNzZhOS44MTEsOS44MTEsMCwwLDAtNi4wMjQsMS45MTFBOS4yMzEsOS4yMzEsMCwwLDAsNTU5LjIsMTEwLjN2OS4wNGg1Ljk0OXYtNy4wNTZhMS40LDEuNCwwLDAsMSwxLjQtMS40aDBhMS40LDEuNCwwLDAsMSwxLjQsMS40djcuMDU2aDE1LjUzNHYtNy4wNTZhMS40LDEuNCwwLDAsMSwxLjQtMS40aDBhMS40LDEuNCwwLDAsMSwxLjQsMS40djcuMDU2aDUuOTUyVjExMC4zQTkuMjQzLDkuMjQzLDAsMCwwLDU4OC42MjQsMTAyLjk2M1oiLz48cGF0aCBjbGFzcz0iY2xzLTIiIGQ9Ik02MjUuODU3LDk5LjJhOS4yNjcsOS4yNjcsMCwxLDEsOS4yNjMtOS4yNjcsOS4yNzcsOS4yNzcsMCwwLDEtOS4yNjMsOS4yNjciLz48cGF0aCBjbGFzcz0iY2xzLTIiIGQ9Ik02MzguNzY3LDEwMi45NjNhOS43MTcsOS43MTcsMCwwLDAtNi4wMDctMS45M0g2MTlhOS44MTEsOS44MTEsMCwwLDAtNi4wMjQsMS45MTEsOS4yMzEsOS4yMzEsMCwwLDAtMy42MzQsNy4zNTR2OS4wNGg1Ljk0OXYtNy4wNTZhMS40LDEuNCwwLDAsMSwxLjQtMS40aDBhMS40LDEuNCwwLDAsMSwxLjQsMS40djcuMDU2aDE1LjUzNHYtNy4wNTZhMS40LDEuNCwwLDAsMSwxLjQtMS40aDBhMS40LDEuNCwwLDAsMSwxLjQsMS40djcuMDU2aDUuOTUyVjExMC4zQTkuMjQzLDkuMjQzLDAsMCwwLDYzOC43NjcsMTAyLjk2M1oiLz48cGF0aCBjbGFzcz0iY2xzLTIiIGQ9Ik01NzUuNzE0LDE1MS43YTkuMjY3LDkuMjY3LDAsMSwxLDkuMjYzLTkuMjY3LDkuMjc3LDkuMjc3LDAsMCwxLTkuMjYzLDkuMjY3Ii8+PHBhdGggY2xhc3M9ImNscy0yIiBkPSJNNTg4LjYyNCwxNTUuNDY3YTkuNzE3LDkuNzE3LDAsMCwwLTYuMDA3LTEuOTNoLTEzLjc2YTkuODExLDkuODExLDAsMCwwLTYuMDI0LDEuOTExQTkuMjMxLDkuMjMxLDAsMCwwLDU1OS4yLDE2Mi44djkuMDRoNS45NDl2LTcuMDU2YTEuNCwxLjQsMCwwLDEsMS40LTEuNGgwYTEuNCwxLjQsMCwwLDEsMS40LDEuNHY3LjA1NmgxNS41MzR2LTcuMDU2YTEuNCwxLjQsMCwwLDEsMS40LTEuNGgwYTEuNCwxLjQsMCwwLDEsMS40LDEuNHY3LjA1Nmg1Ljk1MlYxNjIuOEE5LjI0Myw5LjI0MywwLDAsMCw1ODguNjI0LDE1NS40NjdaIi8+PHBhdGggY2xhc3M9ImNscy0yIiBkPSJNNjI1Ljg1NywxNTEuN2E5LjI2Nyw5LjI2NywwLDEsMSw5LjI2My05LjI2Nyw5LjI3Nyw5LjI3NywwLDAsMS05LjI2Myw5LjI2NyIvPjxwYXRoIGNsYXNzPSJjbHMtMiIgZD0iTTYzOC43NjcsMTU1LjQ2N2E5LjcxNyw5LjcxNywwLDAsMC02LjAwNy0xLjkzSDYxOWE5LjgxMSw5LjgxMSwwLDAsMC02LjAyNCwxLjkxMSw5LjIzMSw5LjIzMSwwLDAsMC0zLjYzNCw3LjM1NHY5LjA0aDUuOTQ5di03LjA1NmExLjQsMS40LDAsMCwxLDEuNC0xLjRoMGExLjQsMS40LDAsMCwxLDEuNCwxLjR2Ny4wNTZoMTUuNTM0di03LjA1NmExLjQsMS40LDAsMCwxLDEuNC0xLjRoMGExLjQsMS40LDAsMCwxLDEuNCwxLjR2Ny4wNTZoNS45NTJWMTYyLjhBOS4yNDMsOS4yNDMsMCwwLDAsNjM4Ljc2NywxNTUuNDY3WiIvPjxwYXRoIGNsYXNzPSJjbHMtMSIgZD0iTTM3NC4wNTUsMzcuMzYzSDI5NC43NjJhMS44NDMsMS44NDMsMCwwLDAtMS45NjksMS42ODNWMTQzLjAyYTEuODQzLDEuODQzLDAsMCwwLDEuOTY5LDEuNjgzSDM5NS4yMzlhMS44NDMsMS44NDMsMCwwLDAsMS45NjktMS42ODNWNjAuNTlaIi8+PHBhdGggY2xhc3M9ImNscy0zIiBkPSJNMjc0LjkyNywxNTMuNTI4Yy0uNDU0LDAtLjc5My0uMjY4LS43OTMtLjUwOFY0OS4wNDZjMC0uMjM5LjMzOS0uNTA3Ljc5My0uNTA3aDc4LjhMMzc2LjIsNzEuMDc3VjE1My4wMmMwLC4yNC0uMzM5LjUwOC0uNzkzLjUwOFoiLz48cGF0aCBjbGFzcz0iY2xzLTQiIGQ9Ik0zNTMuMjQ0LDQ5LjcxNGwyMS43NzcsMjEuODQ4djgwLjc5SDI3NS4zMVY0OS43MTRoNzcuOTM0bS45NzYtMi4zNTFIMjc0LjkyOGExLjg0MiwxLjg0MiwwLDAsMC0xLjk2OSwxLjY4M1YxNTMuMDJhMS44NDMsMS44NDMsMCwwLDAsMS45NjksMS42ODNIMzc1LjRhMS44NDMsMS44NDMsMCwwLDAsMS45NjktMS42ODNWNzAuNTkxTDM1NC4yMjEsNDcuMzYzWiIvPjxwYXRoIGNsYXNzPSJjbHMtMSIgZD0iTTM1My4wOTIsMTExLjY4OGgtNFYxMDYuMDZhMy4zOTIsMy4zOTIsMCwwLDAtMy4zODYtMy4zODhIMzA0LjYyOGEzLjM5MiwzLjM5MiwwLDAsMC0zLjM5LDMuMzg4djUuNjI4aC00VjEwNi4wNmE3LjM4NCw3LjM4NCwwLDAsMSw3LjM4Ni03LjM4NGg0MS4wODFhNy4zODcsNy4zODcsMCwwLDEsNy4zODIsNy4zODRaIi8+PHJlY3QgY2xhc3M9ImNscy0xIiB4PSIzMjMuMTY4IiB5PSI4OS42NiIgd2lkdGg9IjMuOTk3IiBoZWlnaHQ9IjIyLjAyOCIvPjxwYXRoIGNsYXNzPSJjbHMtNSIgZD0iTTMzNC4zNDUsMTMzLjMxNkgzMTUuOTg2VjExNC45NTloMTguMzU5WiIvPjxwYXRoIGNsYXNzPSJjbHMtNiIgZD0iTTM0MS41MjcsODYuMzg4SDMwOC44MDZWNjguMDI5aDMyLjcyMVoiLz48cGF0aCBjbGFzcz0iY2xzLTUiIGQ9Ik0zNjAuMjc0LDEzMy4zMTZIMzQxLjkxN1YxMTQuOTU5aDE4LjM1N1oiLz48cGF0aCBjbGFzcz0iY2xzLTUiIGQ9Ik0zMDguNDIsMTMzLjMxNkgyOTAuMDYyVjExNC45NTlIMzA4LjQyWiIvPjxwYXRoIGNsYXNzPSJjbHMtNCIgZD0iTTM3Ni4zNjUsNzEuNjA3SDM1NC45YTEuNjgzLDEuNjgzLDAsMCwxLTEuNjgzLTEuNjgzVjQ4LjM3MVoiLz48L2c+PC9zdmc+;" parent="DnX8of81x7eRWFO5bJzf-1004" vertex="1">
          <mxGeometry width="547.3005586592179" height="168.25474860335194" as="geometry"/>
        </mxCell>
        <mxCell id="DnX8of81x7eRWFO5bJzf-1002" value="" style="rounded=0;whiteSpace=wrap;html=1;shadow=0;strokeColor=#FFFFFF;fillColor=#FFFFFF;" vertex="1" parent="DnX8of81x7eRWFO5bJzf-1004">
          <mxGeometry x="132.33519553072625" y="20" width="425.3631284916201" height="140" as="geometry"/>
        </mxCell>
        <mxCell id="DnX8of81x7eRWFO5bJzf-1003" value="" style="rounded=0;whiteSpace=wrap;html=1;shadow=0;strokeColor=#FFFFFF;fillColor=#FFFFFF;" vertex="1" parent="DnX8of81x7eRWFO5bJzf-1004">
          <mxGeometry y="110" width="425.3631284916201" height="50" as="geometry"/>
        </mxCell>
        <mxCell id="957" value="&lt;div style=&quot;font-size: 89px&quot;&gt;&lt;font style=&quot;font-size: 89px&quot;&gt;&lt;b style=&quot;background-color: rgb(255 , 255 , 255)&quot;&gt;Enterprise&lt;/b&gt;&lt;/font&gt;&lt;/div&gt;&lt;div style=&quot;font-size: 89px&quot;&gt;&lt;font style=&quot;font-size: 89px&quot;&gt;&lt;b style=&quot;background-color: rgb(255 , 255 , 255)&quot;&gt;Applications&lt;/b&gt;&lt;/font&gt;&lt;/div&gt;" style="text;html=1;resizable=0;points=[];autosize=1;align=left;verticalAlign=top;spacingTop=-4;fontSize=14;fontFamily=Verdana;fontColor=#444444;labelBackgroundColor=none;" parent="DnX8of81x7eRWFO5bJzf-1004" vertex="1">
          <mxGeometry x="224.68156424581005" y="12" width="630" height="40" as="geometry"/>
        </mxCell>
        <mxCell id="DnX8of81x7eRWFO5bJzf-1001" value="" style="group" vertex="1" connectable="0" parent="DnX8of81x7eRWFO5bJzf-1013">
          <mxGeometry x="121.5" y="130" width="274" height="274" as="geometry"/>
        </mxCell>
        <mxCell id="940" value="" style="shape=image;verticalLabelPosition=bottom;labelBackgroundColor=#ffffff;verticalAlign=top;aspect=fixed;imageAspect=0;image=data:image/svg+xml,PHN2ZyB4bWxucz0iaHR0cDovL3d3dy53My5vcmcvMjAwMC9zdmciIHZpZXdCb3g9IjAgMCAyMDAgMjAwIj48ZGVmcz48c3R5bGU+LmNscy0xe2ZpbGw6IzQ0NDt9LmNscy0ye2ZpbGw6IzkwOTA5MDt9LmNscy0ze2ZpbGw6I2YwODcwNTt9LmNscy00e2ZpbGw6I2NjYzt9PC9zdHlsZT48L2RlZnM+PHRpdGxlPlplaWNoZW5mbMODwqRjaGUgMyBLb3BpZSAxMDwvdGl0bGU+PGcgaWQ9IkViZW5lXzIiIGRhdGEtbmFtZT0iRWJlbmUgMiI+PHJlY3QgY2xhc3M9ImNscy0xIiB4PSI4OS40NjUiIHk9Ijk5Ljc3MyIgd2lkdGg9IjMuNiIgaGVpZ2h0PSIzOS4wMiIvPjxyZWN0IGNsYXNzPSJjbHMtMSIgeD0iOTUuNTcxIiB5PSI5Mi40MjEiIHdpZHRoPSIzLjYiIGhlaWdodD0iNDYuMzczIi8+PHJlY3QgY2xhc3M9ImNscy0xIiB4PSIxMDEuNjc2IiB5PSI4My45NyIgd2lkdGg9IjMuNiIgaGVpZ2h0PSI1NC44MjMiLz48cmVjdCBjbGFzcz0iY2xzLTEiIHg9IjgzLjM2IiB5PSI5NC4zMTkiIHdpZHRoPSIzLjYiIGhlaWdodD0iNDQuNDc0Ii8+PHJlY3QgY2xhc3M9ImNscy0xIiB4PSIxMDcuNzgyIiB5PSI4OS45MzkiIHdpZHRoPSIzLjYiIGhlaWdodD0iNDguODU0Ii8+PHJlY3QgY2xhc3M9ImNscy0xIiB4PSIxMTMuODg3IiB5PSI5Mi40MjEiIHdpZHRoPSIzLjYiIGhlaWdodD0iNDYuMzczIi8+PHJlY3QgY2xhc3M9ImNscy0xIiB4PSIxMTkuOTkzIiB5PSI4Ny41MzgiIHdpZHRoPSIzLjYiIGhlaWdodD0iNTEuMjU1Ii8+PHJlY3QgY2xhc3M9ImNscy0xIiB4PSIxMjYuMDk4IiB5PSI3OC4wMjIiIHdpZHRoPSIzLjYiIGhlaWdodD0iNjAuNzcxIi8+PHJlY3QgY2xhc3M9ImNscy0xIiB4PSIxMzIuMjA0IiB5PSI4NS40NDQiIHdpZHRoPSIzLjYiIGhlaWdodD0iNTMuMzUiLz48cmVjdCBjbGFzcz0iY2xzLTEiIHg9IjEzOC4zMDkiIHk9Ijg3LjUzOCIgd2lkdGg9IjMuNiIgaGVpZ2h0PSI1MS4yNTUiLz48cmVjdCBjbGFzcz0iY2xzLTEiIHg9IjE0NC40MTUiIHk9IjgxLjc1NCIgd2lkdGg9IjMuNiIgaGVpZ2h0PSI1Ny4wMzkiLz48cmVjdCBjbGFzcz0iY2xzLTEiIHg9IjE1MC41MiIgeT0iNzIuNDYiIHdpZHRoPSIzLjYiIGhlaWdodD0iNjYuMzMzIi8+PHBhdGggY2xhc3M9ImNscy0yIiBkPSJNODEuNTYsMTM4Ljc5M2wxLjQtMTEuMzQ3LDEwLjQ0OCwxLjA0OWExLDEsMCwwLDAsMS4xLS45MTZMOTUuNjgsMTEyLjc3aDUuNjM0YTEsMSwwLDAsMCwuOTQ2LTEuMzIzTDk2LjcyOSw5NS4yNjNWOTEuM2gtLjA0YTI2LjAyMSwyNi4wMjEsMCwxLDAtNTAuNjEsOS42MWw1LjQzOSwxNy44NjMtMy4yNDYsMjAuMDI1WiIvPjxwYXRoIGNsYXNzPSJjbHMtMSIgZD0iTTY5Ljk2MSwxMDcuMDYyQTE2LjE2NCwxNi4xNjQsMCwxLDEsODYuMTIsOTAuOSwxNi4xODcsMTYuMTg3LDAsMCwxLDY5Ljk2MSwxMDcuMDYyWiIvPjxyZWN0IGNsYXNzPSJjbHMtMyIgeD0iNjguNDMyIiB5PSI4Mi43MjkiIHdpZHRoPSIzLjA0NyIgaGVpZ2h0PSIxNi4zMzYiLz48cmVjdCBjbGFzcz0iY2xzLTMiIHg9IjYxLjc5MyIgeT0iODkuMzc0IiB3aWR0aD0iMTYuMzMxIiBoZWlnaHQ9IjMuMDQ3Ii8+PHBvbHlnb24gY2xhc3M9ImNscy00IiBwb2ludHM9IjExMy4wMzYgODIuNDE2IDExMi41OTcgODIuNDE2IDExMi4yODMgODIuMTA1IDEwNi4yMDIgNzYuMDIxIDEwNy42OTkgNzQuNTI0IDExMy43OCA4MC42MSAxMTMuMDM0IDgxLjM1NiAxMTMuMDM2IDgyLjQxNiIvPjxwb2x5Z29uIGNsYXNzPSJjbHMtNCIgcG9pbnRzPSIxMzYuNTUxIDc3LjcxMyAxMzYuMTEzIDc3LjcxMyAxMzUuNzk4IDc3LjQwMyAxMjkuNzE3IDcxLjMxOCAxMzEuMjE1IDY5LjgyMiAxMzcuMjk1IDc1LjkwNyAxMzYuNTQ5IDc2LjY1MyAxMzYuNTUxIDc3LjcxMyIvPjxwb2x5Z29uIGNsYXNzPSJjbHMtNCIgcG9pbnRzPSIxNDAuMzE1IDc3LjcxMyAxMzkuODc2IDc3LjcxMyAxMzkuODc0IDc2LjY1MyAxMzkuMTI4IDc1LjkwNyAxNDkuOTExIDY1LjExOCAxNTEuNDA5IDY2LjYxNSAxNDAuMzE1IDc3LjcxMyIvPjxwb2x5Z29uIGNsYXNzPSJjbHMtNCIgcG9pbnRzPSIxMTYuOCA4Mi40MTYgMTE2LjM2MSA4Mi40MTYgMTE2LjM1OSA4MS4zNTYgMTE1LjYxMyA4MC42MDkgMTI2LjM5NiA2OS44MjEgMTI3Ljg5MyA3MS4zMTggMTE2LjggODIuNDE2Ii8+PHBvbHlnb24gY2xhc3M9ImNscy00IiBwb2ludHM9IjkzLjI4NiA4Ny4xMTkgOTIuODQ3IDg3LjExOSA5Mi44NDUgODYuMDU5IDkyLjA5OSA4NS4zMTMgMTAyLjg4MiA3NC41MjUgMTA0LjM3OSA3Ni4wMjEgOTMuMjg2IDg3LjExOSIvPjxwYXRoIGNsYXNzPSJjbHMtNCIgZD0iTTkxLjE4Miw5MC43MjFhMywzLDAsMSwxLDMtMywzLDMsMCwwLDEtMywzIi8+PHBhdGggY2xhc3M9ImNscy00IiBkPSJNMTA1LjI5MSw3Ni42MTJhMywzLDAsMSwxLDMtMywzLDMsMCwwLDEtMywzIi8+PHBhdGggY2xhc3M9ImNscy00IiBkPSJNMTE0LjcsODYuMDE4YTMsMywwLDEsMSwzLTMsMywzLDAsMCwxLTMsMyIvPjxwYXRoIGNsYXNzPSJjbHMtNCIgZD0iTTEyOC44MDYsNzEuOTFhMywzLDAsMSwxLDMtMywzLDMsMCwwLDEtMywzIi8+PHBhdGggY2xhc3M9ImNscy00IiBkPSJNMTM4LjIxMSw4MS4zMTVhMywzLDAsMSwxLDMtMywzLDMsMCwwLDEtMywzIi8+PHBhdGggY2xhc3M9ImNscy0zIiBkPSJNMTUyLjMyLDY3LjIwN2EzLDMsMCwxLDEsMy0zLDMsMywwLDAsMS0zLDMiLz48L2c+PC9zdmc+;" parent="DnX8of81x7eRWFO5bJzf-1001" vertex="1">
          <mxGeometry width="274" height="274" as="geometry"/>
        </mxCell>
        <mxCell id="DnX8of81x7eRWFO5bJzf-1000" value="" style="shape=ext;double=1;rounded=0;whiteSpace=wrap;html=1;fillColor=#FFFFFF;strokeColor=#FFFFFF;" vertex="1" parent="DnX8of81x7eRWFO5bJzf-1001">
          <mxGeometry x="60" y="88" width="78" height="110" as="geometry"/>
        </mxCell>
        <mxCell id="946" value="" style="shape=image;verticalLabelPosition=bottom;labelBackgroundColor=#ffffff;verticalAlign=top;aspect=fixed;imageAspect=0;image=data:image/svg+xml,PHN2ZyB4bWxucz0iaHR0cDovL3d3dy53My5vcmcvMjAwMC9zdmciIHZpZXdCb3g9IjAgMCAyMDAgMjAwIj48ZGVmcz48c3R5bGU+LmNscy0xe2ZpbGw6I2NjYzt9LmNscy0ye2ZpbGw6I2ZmZjt9LmNscy0ze2ZpbGw6I2YwODcwNTt9LmNscy00e2ZpbGw6IzkwOTA5MDt9PC9zdHlsZT48L2RlZnM+PHRpdGxlPlplaWNoZW5mbMODwqRjaGUgMyBLb3BpZSAyPC90aXRsZT48ZyBpZD0iRWJlbmVfMiIgZGF0YS1uYW1lPSJFYmVuZSAyIj48cGF0aCBjbGFzcz0iY2xzLTEiIGQ9Ik0xMDAuMzc1LDEzNy42NjZsMS40LTExLjM0NywxMS40NjQsMS4xNTEsMS4yNTctMTUuODI3aDcuMDMzbC01Ljk4NC0xNy41MDZWOTAuMTY5aC0uMDRhMjYuMDE4LDI2LjAxOCwwLDEsMC01MC42MSw5LjYxbDUuNDM5LDE3Ljg2My0zLjI0NiwyMC4wMjVaIi8+PHBhdGggY2xhc3M9ImNscy0yIiBkPSJNOTYuMzcxLDExMi4wNUg4Mi42MTN2LTEuMTgzYTEwLjE5NCwxMC4xOTQsMCwwLDAtMy4zMi03LjUxMWMtLjExOS0uMS0uMjQ5LS4yMTgtLjM3OC0uMzI2bC0uMDQxLS4wMzdhMTUuNzU0LDE1Ljc1NCwwLDEsMSwyMS4yMzksMGwtLjA0NS4wMzljLS4xMjUuMS0uMjUxLjIxMy0uMzc2LjMyN2ExMC4xNjksMTAuMTY5LDAsMCwwLTMuMzIxLDcuNTA4WiIvPjxwb2x5Z29uIGNsYXNzPSJjbHMtMyIgcG9pbnRzPSI5MC41ODcgMTAyLjQxMiA4OC4zNDggMTAxLjY0NSA5MC45NjUgOTQuMDA3IDg0LjY1NCA5NC4wMDcgODguMzQ4IDgzLjIzNiA5MC41ODcgODQuMDA0IDg3Ljk2OCA5MS42NCA5NC4yNzkgOTEuNjQgOTAuNTg3IDEwMi40MTIiLz48cmVjdCBjbGFzcz0iY2xzLTQiIHg9IjgyLjYwNCIgeT0iMTEzLjkyMyIgd2lkdGg9IjEzLjc3NyIgaGVpZ2h0PSIyLjM2NiIvPjxyZWN0IGNsYXNzPSJjbHMtNCIgeD0iODYuMzE0IiB5PSIxMTguMTYyIiB3aWR0aD0iNi4zNTgiIGhlaWdodD0iMi4zNjYiLz48cmVjdCBjbGFzcz0iY2xzLTQiIHg9Ijg4LjMxIiB5PSIxMjIuMjY5IiB3aWR0aD0iMi4zNjYiIGhlaWdodD0iMTUuMjUzIi8+PHBhdGggY2xhc3M9ImNscy0yIiBkPSJNODguMDIxLDcwLjUxNmMuNDc3LS4wMzIuOTYzLS4wNDksMS40NDItLjA0OS4zNiwwLC43MTguMDA4LDEuMDc4LjAyN2wtLjExOSwyLjM2M2MtLjMxNy0uMDE2LS42MzQtLjAyNC0uOTQ4LS4wMjQtLjQxNCwwLS44NjIuMDE1LTEuMjg4LjA0NVptNi44LDMuMWExOC4zODksMTguMzg5LDAsMCwwLTIuMTc2LS41MDlsLjQtMi4zMzNhMjAuNTg1LDIwLjU4NSwwLDAsMSwyLjQ1Ni41NzVsLS42NzksMi4yNjdNODMuMDc4LDcxLjQ3YTIwLjY0LDIwLjY0LDAsMCwxLDIuNDQ0LS42MjhsLjQ0OCwyLjMyNGExOC41MzMsMTguNTMzLDAsMCwwLTIuMTY0LjU1NlpNOTguOTExLDc1LjRhMTguNzM0LDE4LjczNCwwLDAsMC0xLjk5LTEuMDJsLjk0OS0yLjE2OGEyMS4wMTIsMjEuMDEyLDAsMCwxLDIuMjQ1LDEuMTUxbC0xLjIsMi4wMzdtLTIwLjQtMS44MTlhMjAuNzczLDIwLjc3MywwLDAsMSwyLjIyLTEuMTk0bC45OTMsMi4xNDhBMTguNDY3LDE4LjQ2NywwLDAsMCw3OS43NTksNzUuNlptMjMuOTM5LDQuNTM4YTE4LjYwNywxOC42MDcsMCwwLDAtMS42ODktMS40NjZsMS40NDItMS44NzdhMjEuMDUzLDIxLjA1MywwLDAsMSwxLjksMS42NTNsLTEuNjU3LDEuNjltLTI3Ljg2OC0xLjRhMjEuMDUxLDIxLjA1MSwwLDAsMSwxLjg3MS0xLjY4OWwxLjQ3OSwxLjg0OGExOC44MTUsMTguODE1LDAsMCwwLTEuNjYsMS41Wm0zMC42NTksNC44ODFhMTguMzksMTguMzksMCwwLDAtMS4yOTEtMS44MjZMMTA1LjgsNzguM2EyMC44LDIwLjgsMCwwLDEsMS40NTUsMi4wNTdsLTIuMDEyLDEuMjQ4bS0zMy43MjgtLjg5MWEyMC45NTgsMjAuOTU4LDAsMCwxLDEuNDE0LTIuMDg4TDc0LjgsODAuMDdhMTguNTQyLDE4LjU0MiwwLDAsMC0xLjI1NSwxLjg1MVptMzUuNjA2LDQuOTM1YTE4LjQzOCwxOC40MzgsMCwwLDAtLjgxNi0yLjA3OWwyLjE0OC0xYTIwLjkzMSwyMC45MzEsMCwwLDEsLjkyLDIuMzQ2bC0yLjI1Mi43MjltLTM3LjYzLS4zMjJhMjAuNjg2LDIwLjY4NiwwLDAsMSwuODcxLTIuMzY5bDIuMTY4Ljk1MWExOC4zOSwxOC4zOSwwLDAsMC0uNzcyLDIuMVptMzguNDgsNC43YTE4LjM2OCwxOC4zNjgsMCwwLDAtLjI5MS0yLjIxNUwxMTAsODcuMzYyYTIwLjc5LDIwLjc5LDAsMCwxLC4zMjgsMi41bC0yLjM2MS4xNjZtLTM5LjMzNC4yMTVhMjEuMDMsMjEuMDMsMCwwLDEsLjI3Ni0yLjQ2M2wyLjMzMi40QTE4LjYsMTguNiwwLDAsMCw3MSw5MC4zNTJsMCwuMDY1Wm0zOS4xLDQuMzE5YTE4LjU4OCwxOC41ODgsMCwwLDAsLjI1Mi0yLjIzbDAtLjA2NiwyLjM2My4xMTYsMCwuMDgzYTIxLjI2NSwyMS4yNjUsMCwwLDEtLjI4NCwyLjVabS0zOC43NTkuNzQ0YTIwLjg2LDIwLjg2LDAsMCwxLS4zMjQtMi41bDIuMzYxLS4xNjFBMTguNDA2LDE4LjQwNiwwLDAsMCw3MS4zLDk0Ljg2bC0yLjMyNC40NDdtMzcuNDY2LDMuNTI2YTE4LjUzMiwxOC41MzIsMCwwLDAsLjc3Ny0yLjFsMi4yNjYuNjg2YTIwLjkwNiwyMC45MDYsMCwwLDEtLjg3OCwyLjM2NlpNNzAuNTE4LDEwMC4xYTIwLjkxNywyMC45MTcsMCwwLDEtLjkxNi0yLjM0N2wyLjI1My0uNzI0YTE4LjIxNywxOC4yMTcsMCwwLDAsLjgxMiwyLjA4bC0yLjE0OS45OTJtMzMuNjQyLDIuNTcxYTE4LjY1LDE4LjY1LDAsMCwwLDEuMjU4LTEuODQ4bDIuMDMzLDEuMjExYTIwLjcyMywyMC43MjMsMCwwLDEtMS40MTksMi4wODVabS0zMSwxLjcxYTIxLjAyNCwyMS4wMjQsMCwwLDEtMS40NTEtMi4wNjJsMi4wMTUtMS4yNDNhMTguNTI5LDE4LjUyOSwwLDAsMCwxLjI4NiwxLjgyOGwtMS44NSwxLjQ3Nm0yNy44NjUsMS40N2ExOC42NTEsMTguNjUxLDAsMCwwLDEuNjYyLTEuNWwxLjY4NiwxLjY2MUEyMC45MTUsMjAuOTE1LDAsMCwxLDEwMi41LDEwNy43Wm0tMjQuMjc3LDIuMDU5YTIxLjE4OSwyMS4xODksMCwwLDEtMS45LTEuNjU3bDEuNjYtMS42ODhhMTguNDYyLDE4LjQ2MiwwLDAsMCwxLjY4NiwxLjQ3MWwtMS40NDYsMS44NzQiLz48cGF0aCBjbGFzcz0iY2xzLTEiIGQ9Ik0xMTUuNzUsMTM0LjY2NmwxLjQtMTEuMzQ3LDEwLjQ0OCwxLjA0OWExLDEsMCwwLDAsMS4xLS45MTZsMS4xNzYtMTQuODA5SDEzNS41YTEsMSwwLDAsMCwuOTQ2LTEuMzIzbC01LjUzMi0xNi4xODNWODcuMTY4aC0uMDRhMjYuMDIxLDI2LjAyMSwwLDEsMC01MC42MSw5LjYxbDUuNDM5LDE3Ljg2My0zLjI0NiwyMC4wMjVaIi8+PHBhdGggY2xhc3M9ImNscy00IiBkPSJNMTAwLjc0OSwxMzcuNjY2bDEuNC0xMS4zNDcsMTAuNDQ4LDEuMDQ5YTEsMSwwLDAsMCwxLjEtLjkxNmwxLjE3Ni0xNC44MDlIMTIwLjVhMSwxLDAsMCwwLC45NDYtMS4zMjNsLTUuNTMyLTE2LjE4M1Y5MC4xNjloLS4wNGEyNi4wMjEsMjYuMDIxLDAsMSwwLTUwLjYxLDkuNjFsNS40MzksMTcuODYzLTMuMjQ2LDIwLjAyNVoiLz48cGF0aCBjbGFzcz0iY2xzLTIiIGQ9Ik05Ni43NDQsMTEyLjA1SDgyLjk4N3YtMS4xODNhMTAuMTk0LDEwLjE5NCwwLDAsMC0zLjMyLTcuNTExYy0uMTE5LS4xLS4yNDktLjIxOC0uMzc4LS4zMjZsLS4wNDEtLjAzN2ExNS43NTQsMTUuNzU0LDAsMSwxLDIxLjIzOSwwbC0uMDQ1LjAzOWMtLjEyNS4xLS4yNTEuMjEzLS4zNzYuMzI3YTEwLjE2OSwxMC4xNjksMCwwLDAtMy4zMjEsNy41MDhaIi8+PHBvbHlnb24gY2xhc3M9ImNscy0zIiBwb2ludHM9IjkwLjk2MSAxMDIuNDEyIDg4LjcyMiAxMDEuNjQ1IDkxLjMzOSA5NC4wMDcgODUuMDI4IDk0LjAwNyA4OC43MjIgODMuMjM2IDkwLjk2MSA4NC4wMDQgODguMzQxIDkxLjY0IDk0LjY1MiA5MS42NCA5MC45NjEgMTAyLjQxMiIvPjxyZWN0IGNsYXNzPSJjbHMtMSIgeD0iODIuOTc4IiB5PSIxMTMuOTIzIiB3aWR0aD0iMTMuNzc3IiBoZWlnaHQ9IjIuMzY2Ii8+PHJlY3QgY2xhc3M9ImNscy0xIiB4PSI4Ni42ODciIHk9IjExOC4xNjIiIHdpZHRoPSI2LjM1OCIgaGVpZ2h0PSIyLjM2NiIvPjxyZWN0IGNsYXNzPSJjbHMtMSIgeD0iODguNjgzIiB5PSIxMjIuMjY5IiB3aWR0aD0iMi4zNjYiIGhlaWdodD0iMTUuMjUzIi8+PHBhdGggY2xhc3M9ImNscy0yIiBkPSJNODguNCw3MC41MTZjLjQ3Ny0uMDMyLjk2My0uMDQ5LDEuNDQyLS4wNDkuMzYsMCwuNzE4LjAwOCwxLjA3OC4wMjdMOTAuOCw3Mi44NTZjLS4zMTctLjAxNi0uNjM0LS4wMjQtLjk0OC0uMDI0LS40MTQsMC0uODYyLjAxNS0xLjI4OC4wNDVabTYuOCwzLjFhMTguMzg5LDE4LjM4OSwwLDAsMC0yLjE3Ni0uNTA5bC40LTIuMzMzYTIwLjU4NSwyMC41ODUsMCwwLDEsMi40NTYuNTc1TDk1LjIsNzMuNjEyTTgzLjQ1Miw3MS40N2EyMC42NCwyMC42NCwwLDAsMSwyLjQ0NC0uNjI4bC40NDgsMi4zMjRhMTguNTMzLDE4LjUzMywwLDAsMC0yLjE2NC41NTZaTTk5LjI4NCw3NS40YTE4LjczNCwxOC43MzQsMCwwLDAtMS45OS0xLjAybC45NDktMi4xNjhhMjEuMDEyLDIxLjAxMiwwLDAsMSwyLjI0NSwxLjE1MWwtMS4yLDIuMDM3bS0yMC40LTEuODE5YTIwLjc3MywyMC43NzMsMCwwLDEsMi4yMi0xLjE5NGwuOTkzLDIuMTQ4QTE4LjQ2NywxOC40NjcsMCwwLDAsODAuMTMzLDc1LjZabTIzLjkzOSw0LjUzOGExOC42MDcsMTguNjA3LDAsMCwwLTEuNjg5LTEuNDY2bDEuNDQyLTEuODc3YTIxLjA1MywyMS4wNTMsMCwwLDEsMS45LDEuNjUzbC0xLjY1NywxLjY5bS0yNy44NjgtMS40YTIxLjA1MSwyMS4wNTEsMCwwLDEsMS44NzEtMS42ODlsMS40NzksMS44NDhhMTguODE1LDE4LjgxNSwwLDAsMC0xLjY2LDEuNVptMzAuNjU5LDQuODgxYTE4LjM5LDE4LjM5LDAsMCwwLTEuMjkxLTEuODI2bDEuODQ3LTEuNDhhMjAuOCwyMC44LDAsMCwxLDEuNDU1LDIuMDU3bC0yLjAxMiwxLjI0OG0tMzMuNzI4LS44OTFBMjAuOTU4LDIwLjk1OCwwLDAsMSw3My4zLDc4LjYyN2wxLjg3NiwxLjQ0M2ExOC41NDIsMTguNTQyLDAsMCwwLTEuMjU1LDEuODUxWm0zNS42MDYsNC45MzVhMTguNDM4LDE4LjQzOCwwLDAsMC0uODE2LTIuMDc5bDIuMTQ4LTFhMjAuOTMxLDIwLjkzMSwwLDAsMSwuOTIsMi4zNDZsLTIuMjUyLjcyOW0tMzcuNjMtLjMyMmEyMC42ODYsMjAuNjg2LDAsMCwxLC44NzEtMi4zNjlsMi4xNjguOTUxYTE4LjM5LDE4LjM5LDAsMCwwLS43NzIsMi4xWm0zOC40OCw0LjdhMTguMzY4LDE4LjM2OCwwLDAsMC0uMjkxLTIuMjE1bDIuMzI0LS40NTFhMjAuNzksMjAuNzksMCwwLDEsLjMyOCwyLjVsLTIuMzYxLjE2Nm0tMzkuMzM0LjIxNWEyMS4wMywyMS4wMywwLDAsMSwuMjc2LTIuNDYzbDIuMzMyLjRhMTguNiwxOC42LDAsMCwwLS4yNDQsMi4xNjhsMCwuMDY1Wm0zOS4xLDQuMzE5YTE4LjU4OCwxOC41ODgsMCwwLDAsLjI1Mi0yLjIzbDAtLjA2NiwyLjM2My4xMTYsMCwuMDgzYTIxLjI2NSwyMS4yNjUsMCwwLDEtLjI4NCwyLjVabS0zOC43NTkuNzQ0YTIwLjg2LDIwLjg2LDAsMCwxLS4zMjQtMi41bDIuMzYxLS4xNjFhMTguNDA2LDE4LjQwNiwwLDAsMCwuMjg3LDIuMjE2bC0yLjMyNC40NDdtMzcuNDY2LDMuNTI2YTE4LjUzMiwxOC41MzIsMCwwLDAsLjc3Ny0yLjFsMi4yNjYuNjg2YTIwLjkwNiwyMC45MDYsMCwwLDEtLjg3OCwyLjM2NlpNNzAuODkxLDEwMC4xYTIwLjkxNywyMC45MTcsMCwwLDEtLjkxNi0yLjM0N2wyLjI1My0uNzI0YTE4LjIxNywxOC4yMTcsMCwwLDAsLjgxMiwyLjA4bC0yLjE0OS45OTJtMzMuNjQyLDIuNTcxYTE4LjY1LDE4LjY1LDAsMCwwLDEuMjU4LTEuODQ4bDIuMDMzLDEuMjExYTIwLjcyMywyMC43MjMsMCwwLDEtMS40MTksMi4wODVabS0zMSwxLjcxYTIxLjAyNCwyMS4wMjQsMCwwLDEtMS40NTEtMi4wNjJsMi4wMTUtMS4yNDNhMTguNTI5LDE4LjUyOSwwLDAsMCwxLjI4NiwxLjgyOGwtMS44NSwxLjQ3Nm0yNy44NjUsMS40N2ExOC42NTEsMTguNjUxLDAsMCwwLDEuNjYyLTEuNWwxLjY4NiwxLjY2MWEyMC45MTUsMjAuOTE1LDAsMCwxLTEuODc0LDEuNjg2Wm0tMjQuMjc3LDIuMDU5YTIxLjE4OSwyMS4xODksMCwwLDEtMS45LTEuNjU3bDEuNjYtMS42ODhhMTguNDYyLDE4LjQ2MiwwLDAsMCwxLjY4NiwxLjQ3MWwtMS40NDYsMS44NzQiLz48L2c+PC9zdmc+;imageBackground=none;" parent="DnX8of81x7eRWFO5bJzf-1013" vertex="1">
          <mxGeometry x="328.5" y="130" width="280" height="280" as="geometry"/>
        </mxCell>
        <mxCell id="978" value="" style="shape=image;verticalLabelPosition=bottom;labelBackgroundColor=#ffffff;verticalAlign=top;aspect=fixed;imageAspect=0;image=data:image/svg+xml,PHN2ZyB4bWxucz0iaHR0cDovL3d3dy53My5vcmcvMjAwMC9zdmciIHZpZXdCb3g9IjAgMCAyMDAgMjAwIj48ZGVmcz48c3R5bGU+LmNscy0xLC5jbHMtM3tmaWxsOiM0NDQ7fS5jbHMtMntmaWxsOiM3Nzc7fS5jbHMtM3tzdHJva2U6I2FhYTtzdHJva2UtbGluZWpvaW46cm91bmQ7c3Ryb2tlLXdpZHRoOjIuMjM0cHg7fS5jbHMtNHtmaWxsOiMzMzM7fS5jbHMtNXtmaWxsOiNmMDg3MDU7fTwvc3R5bGU+PC9kZWZzPjx0aXRsZT5aZWljaGVuZmzDg8KkY2hlIDMgS29waWUgMTE8L3RpdGxlPjxnIGlkPSJFYmVuZV8yIiBkYXRhLW5hbWU9IkViZW5lIDIiPjxwYXRoIGNsYXNzPSJjbHMtMSIgZD0iTTEzMC43MjQsOTEuNmE2LjUsNi41LDAsMCwwLTQuNjA5LTEuOTA4SDg1Ljc0M2E1LjI2OSw1LjI2OSwwLDAsMC01LjI2OCw1LjI2OVYxMTkuOWE1LjI2OCw1LjI2OCwwLDAsMCw1LjI2OCw1LjI2OGgxLjM5MXY3LjE2YS41MjYuNTI2LDAsMCwwLC45LjM3Mmw3LjUzMS03LjUzMmgzMi4zMTJhNS4yNjgsNS4yNjgsMCwwLDAsNS4yNjgtNS4yNjhsLS41MS0yMy42ODlBNi41LDYuNSwwLDAsMCwxMzAuNzI0LDkxLjZaIi8+PHBhdGggY2xhc3M9ImNscy0yIiBkPSJNOTkuODU5LDc4LjUxNmE2LjUsNi41LDAsMCwwLTQuNjA5LTEuOTA4SDU0Ljg3OGE1LjI2OSw1LjI2OSwwLDAsMC01LjI2OCw1LjI2OXYyNC45MzlhNS4yNjgsNS4yNjgsMCwwLDAsNS4yNjgsNS4yNjhoMS4zOTF2Ny4xNmEuNTI2LjUyNiwwLDAsMCwuOS4zNzJsNy41MzEtNy41MzJIOTcuMDExYTUuMjY4LDUuMjY4LDAsMCwwLDUuMjY4LTUuMjY4bC0uNTEtMjMuNjg5QTYuNSw2LjUsMCwwLDAsOTkuODU5LDc4LjUxNloiLz48cGF0aCBjbGFzcz0iY2xzLTMiIGQ9Ik05Ny42ODIsNjcuMTUxYTQuNTE4LDQuNTE4LDAsMCwwLTQuNTE5LDQuNTE5djI4LjUyNGE0LjUxOCw0LjUxOCwwLDAsMCw0LjUxOSw0LjUyaDM3LjU4Mmw3LjUxMSw3LjUxMnYtNy41MTJoMy4xYTQuNTIxLDQuNTIxLDAsMCwwLDQuNTE5LTQuNTJWNzEuNjdhNC41Miw0LjUyLDAsMCwwLTQuNTE5LTQuNTE5WiIvPjxwYXRoIGNsYXNzPSJjbHMtNCIgZD0iTTg1LjU5MiwxMDMuMzQySDgxLjg3NWEuMTc3LjE3NywwLDAsMS0uMTY1LS4xMTNMODAuMjc2LDk5LjVINzMuNzU5TDcyLjQsMTAzLjIyNWEuMTc2LjE3NiwwLDAsMS0uMTY3LjExN0g2OC42MTNhLjE3Ny4xNzcsMCwwLDEtLjE2NS0uMjQxTDc1LjAzOSw4Ni4xOGEuMTc4LjE3OCwwLDAsMSwuMTY1LS4xMTNoMy42MTNhLjE3Ny4xNzcsMCwwLDEsLjE2NC4xMTFMODUuNzU2LDEwMy4xYS4xNzcuMTc3LDAsMCwxLS4xNjUuMjQzTTc0LjkzNyw5Ni4yOTRoNC4xMDlsLTIuMDc1LTUuNTg4WiIvPjxwYXRoIGNsYXNzPSJjbHMtNSIgZD0iTTExMi44MjksOTUuOTI2YS4zNTQuMzU0LDAsMCwxLS4zMTgtLjJsLTEuMTg3LTIuNDM3YS4zNTkuMzU5LDAsMCwxLS4wMDYtLjMuMzU1LjM1NSwwLDAsMSwuMjI2LS4yLDI3LjQzNiwyNy40MzYsMCwwLDAsNy40MTMtMy4yLDE5LjM0OCwxOS4zNDgsMCwwLDEtMi44MzgtMy42MzksMTcuMDExLDE3LjAxMSwwLDAsMS0xLjY1LTMuNDU4aC0yLjM1NGEuMzU1LjM1NSwwLDAsMS0uMzU1LS4zNTV2LTIuNWEuMzU0LjM1NCwwLDAsMSwuMzU1LS4zNTVoNy43NThWNzYuNTYzYS4zNTQuMzU0LDAsMCwxLC4zNTUtLjM1NWgzLjAxNmEuMzU0LjM1NCwwLDAsMSwuMzU1LjM1NXYyLjcyNGg3Ljg4M2EuMzU0LjM1NCwwLDAsMSwuMzU1LjM1NXYyLjVhLjM1NS4zNTUsMCwwLDEtLjM1NS4zNTVoLTIuNzYzYTE4LjEzLDE4LjEzLDAsMCwxLTQuMjA3LDYuOTIyQTI2LjIwOCwyNi4yMDgsMCwwLDAsMTMyLDkyLjQzMmEuMzU1LjM1NSwwLDAsMSwuMjE4LjUyN2wtMS42MjgsMi43MTFhLjM1OS4zNTksMCwwLDEtLjQuMTU4QTI4LjQ4MiwyOC40ODIsMCwwLDEsMTIxLjcsOTEuOWEzMC41MywzMC41MywwLDAsMS04Ljc2Nyw0LjAxMi4zNDUuMzQ1LDAsMCwxLS4xLjAxNm01LjUtMTMuNDI5YTE0Ljk2OSwxNC45NjksMCwwLDAsMy4zODYsNC43NywxNC43NzYsMTQuNzc2LDAsMCwwLDMuMTE1LTQuNzdaIi8+PC9nPjwvc3ZnPg==;fillColor=#686868;" parent="DnX8of81x7eRWFO5bJzf-1013" vertex="1">
          <mxGeometry y="133" width="277" height="277" as="geometry"/>
        </mxCell>
        <mxCell id="DnX8of81x7eRWFO5bJzf-978" value="" style="shape=image;verticalLabelPosition=bottom;labelBackgroundColor=#ffffff;verticalAlign=top;aspect=fixed;imageAspect=0;image=data:image/svg+xml,PHN2ZyB4bWxucz0iaHR0cDovL3d3dy53My5vcmcvMjAwMC9zdmciIHZpZXdCb3g9IjAgMCAyMDAgMjAwIj48ZGVmcz48c3R5bGU+LmNscy0xe2ZpbGw6I2NjYzt9LmNscy0ye2ZpbGw6I2FhYTt9LmNscy0ze2ZpbGw6I2ZmZjt9LmNscy00e2ZpbGw6bm9uZTtzdHJva2U6I2NjYztzdHJva2UtbGluZWNhcDpzcXVhcmU7c3Ryb2tlLW1pdGVybGltaXQ6MTA7c3Ryb2tlLXdpZHRoOjEuNjAycHg7fS5jbHMtNXtmaWxsOiM5MDkwOTA7fS5jbHMtNntmaWxsOiNmMDg3MDU7fTwvc3R5bGU+PC9kZWZzPjx0aXRsZT5aZWljaGVuZmzDg8KkY2hlIDM8L3RpdGxlPjxnIGlkPSJFYmVuZV8yIiBkYXRhLW5hbWU9IkViZW5lIDIiPjxwYXRoIGNsYXNzPSJjbHMtMSIgZD0iTTExOS4xODYsMTI3LjdINjguMTVhMSwxLDAsMCwxLTEtMXYtNjEuOGExLDEsMCwwLDEsMS0xaDUxLjAzNmExLDEsMCwwLDEsMSwxdjYxLjhBMSwxLDAsMCwxLDExOS4xODYsMTI3LjdaIi8+PHBhdGggY2xhc3M9ImNscy0yIiBkPSJNMTEwLjc5MywxMzYuMDk0SDU5Ljc1N2ExLDEsMCwwLDEtMS0xVjczLjNhMSwxLDAsMCwxLDEtMWg1MS4wMzZhMSwxLDAsMCwxLDEsMXY2MS44QTEsMSwwLDAsMSwxMTAuNzkzLDEzNi4wOTRaIi8+PHJlY3QgY2xhc3M9ImNscy0zIiB4PSI2MS42MTUiIHk9Ijc0LjY5NyIgd2lkdGg9IjQ3Ljc4MSIgaGVpZ2h0PSI1OC45OTkiLz48cGF0aCBjbGFzcz0iY2xzLTQiIGQ9Ik0xMDIuMzYsMTIwLjUyOUg2OC42NW0zMy43MSw1Ljg2NUg2OC42NW0zMy43MS0xMi4zSDY4LjY1bTMzLjcxLTYuNDMySDY4LjY1bTMzLjcxLTYuNDMySDY4LjY1bTMzLjcxLTYuNDI1SDY4LjY1bTMzLjcxLTYuNDMySDY4LjY1bTMzLjcxLTYuNDNINjguNjUiLz48cmVjdCBjbGFzcz0iY2xzLTUiIHg9IjEwNy4zMTgiIHk9IjEwMC41MzciIHdpZHRoPSI2LjU4IiBoZWlnaHQ9IjIuOTE5Ii8+PHJlY3QgY2xhc3M9ImNscy01IiB4PSIxMTMuODM1IiB5PSI5OC4zODgiIHdpZHRoPSIyNy40MDciIGhlaWdodD0iNy4yMTEiLz48cGF0aCBjbGFzcz0iY2xzLTUiIGQ9Ik03My4zNTEsMTAxLjM4NUExNy4zNjEsMTcuMzYxLDAsMSwwLDkwLjcxNSw4NC4wMjJhMTcuMzYxLDE3LjM2MSwwLDAsMC0xNy4zNjMsMTcuMzYzIi8+PHBhdGggY2xhc3M9ImNscy0zIiBkPSJNNzcuMDE0LDEwMS4zODVhMTMuNywxMy43LDAsMSwwLDEzLjctMTMuNzA2LDEzLjcsMTMuNywwLDAsMC0xMy43LDEzLjcwNiIvPjxwb2x5Z29uIGNsYXNzPSJjbHMtNiIgcG9pbnRzPSI4OS4zMTMgMTA2LjM0OSA5Mi4xMTcgMTA2LjM0OSA5My4xNjEgOTIuMzY3IDg4LjI2OSA5Mi4zNjcgODkuMzEzIDEwNi4zNDkiLz48cmVjdCBjbGFzcz0iY2xzLTYiIHg9Ijg5LjMxMyIgeT0iMTA3LjYwMSIgd2lkdGg9IjIuODA0IiBoZWlnaHQ9IjIuNzk0Ii8+PC9nPjwvc3ZnPg==;shadow=1;" vertex="1" parent="DnX8of81x7eRWFO5bJzf-1013">
          <mxGeometry x="88.5" width="292" height="292" as="geometry"/>
        </mxCell>
        <mxCell id="DnX8of81x7eRWFO5bJzf-989" value="" style="endArrow=none;html=1;fillColor=#B3FF66;shadow=1;" edge="1" parent="DnX8of81x7eRWFO5bJzf-1013">
          <mxGeometry width="50" height="50" relative="1" as="geometry">
            <mxPoint x="58.5" y="270" as="sourcePoint"/>
            <mxPoint x="58.5" y="270" as="targetPoint"/>
            <Array as="points">
              <mxPoint x="58.5" y="310"/>
              <mxPoint x="138.5" y="350"/>
              <mxPoint x="218.5" y="310"/>
              <mxPoint x="218.5" y="230"/>
              <mxPoint x="138.5" y="190"/>
              <mxPoint x="58.5" y="230"/>
            </Array>
          </mxGeometry>
        </mxCell>
        <mxCell id="DnX8of81x7eRWFO5bJzf-993" value="" style="endArrow=none;html=1;fillColor=#B3FF66;shadow=1;" edge="1" parent="DnX8of81x7eRWFO5bJzf-1013">
          <mxGeometry width="50" height="50" relative="1" as="geometry">
            <mxPoint x="218.5" y="270" as="sourcePoint"/>
            <mxPoint x="218.5" y="270" as="targetPoint"/>
            <Array as="points">
              <mxPoint x="218.5" y="310"/>
              <mxPoint x="298.5" y="350"/>
              <mxPoint x="378.5" y="310"/>
              <mxPoint x="378.5" y="230"/>
              <mxPoint x="298.5" y="190"/>
              <mxPoint x="218.5" y="230"/>
            </Array>
          </mxGeometry>
        </mxCell>
        <mxCell id="DnX8of81x7eRWFO5bJzf-995" value="" style="endArrow=none;html=1;fillColor=#B3FF66;shadow=1;" edge="1" parent="DnX8of81x7eRWFO5bJzf-1013">
          <mxGeometry width="50" height="50" relative="1" as="geometry">
            <mxPoint x="138.5" y="150" as="sourcePoint"/>
            <mxPoint x="138.5" y="150" as="targetPoint"/>
            <Array as="points">
              <mxPoint x="138.5" y="190"/>
              <mxPoint x="218.5" y="230"/>
              <mxPoint x="298.5" y="190"/>
              <mxPoint x="298.5" y="110"/>
              <mxPoint x="218.5" y="70"/>
              <mxPoint x="138.5" y="110"/>
            </Array>
          </mxGeometry>
        </mxCell>
        <mxCell id="DnX8of81x7eRWFO5bJzf-997" value="" style="endArrow=none;html=1;fillColor=#B3FF66;shadow=1;" edge="1" parent="DnX8of81x7eRWFO5bJzf-1013">
          <mxGeometry width="50" height="50" relative="1" as="geometry">
            <mxPoint x="298.5" y="150" as="sourcePoint"/>
            <mxPoint x="298.5" y="150" as="targetPoint"/>
            <Array as="points">
              <mxPoint x="298.5" y="190"/>
              <mxPoint x="378.5" y="230"/>
              <mxPoint x="458.5" y="190"/>
              <mxPoint x="458.5" y="110"/>
              <mxPoint x="378.5" y="70"/>
              <mxPoint x="298.5" y="110"/>
            </Array>
          </mxGeometry>
        </mxCell>
        <mxCell id="DnX8of81x7eRWFO5bJzf-998" value="" style="endArrow=none;html=1;fillColor=#B3FF66;shadow=1;" edge="1" parent="DnX8of81x7eRWFO5bJzf-1013">
          <mxGeometry width="50" height="50" relative="1" as="geometry">
            <mxPoint x="378.5" y="270.5" as="sourcePoint"/>
            <mxPoint x="378.5" y="270.5" as="targetPoint"/>
            <Array as="points">
              <mxPoint x="378.5" y="310.5"/>
              <mxPoint x="458.5" y="350.5"/>
              <mxPoint x="538.5" y="310.5"/>
              <mxPoint x="538.5" y="230.5"/>
              <mxPoint x="458.5" y="190.5"/>
              <mxPoint x="378.5" y="230.5"/>
            </Array>
          </mxGeometry>
        </mxCell>
        <mxCell id="DnX8of81x7eRWFO5bJzf-1011" value="" style="rounded=0;whiteSpace=wrap;html=1;shadow=0;strokeColor=none;fillColor=#4D4D4D;" vertex="1" parent="DnX8of81x7eRWFO5bJzf-1013">
          <mxGeometry x="147.5" y="236" width="40" height="30" as="geometry"/>
        </mxCell>
        <mxCell id="DnX8of81x7eRWFO5bJzf-1012" value="" style="shape=mxgraph.signs.tech.rss;html=1;pointerEvents=1;fillColor=#FF9933;strokeColor=none;verticalLabelPosition=bottom;verticalAlign=top;align=center;shadow=0;" vertex="1" parent="DnX8of81x7eRWFO5bJzf-1013">
          <mxGeometry x="148.5" y="231" width="41" height="39" as="geometry"/>
        </mxCell>
      </root>
    </mxGraphModel>
  </diagram>
</mxfile>
